<?xml version="1.0" encoding="utf-8"?>
<!-- Generator: Adobe Illustrator 27.5.0, SVG Export Plug-In . SVG Version: 6.00 Build 0)  -->
<svg version="1.1" xmlns="http://www.w3.org/2000/svg" xmlns:xlink="http://www.w3.org/1999/xlink" x="0px" y="0px"
	 viewBox="0 0 500 500" style="enable-background:new 0 0 500 500;" xml:space="preserve">
<g id="BACKGROUND">
	<rect style="fill:#F8FBFC;" width="500" height="500"/>
</g>
<g id="OBJECTS">
	<g>
		<path style="fill:#DEEFE6;" d="M50.911,443.451h409.285c0,0,47.025-332.221-215.413-332.221
			C-0.279,111.23,50.911,443.451,50.911,443.451z"/>
		<circle style="fill:#DEEFE6;" cx="411.196" cy="123.914" r="35.804"/>
		
			<ellipse transform="matrix(0.7071 -0.7071 0.7071 0.7071 -57.7562 121.7508)" style="fill:#DEEFE6;" cx="118.088" cy="130.593" rx="48.04" ry="48.04"/>
		
			<ellipse transform="matrix(0.6193 -0.7852 0.7852 0.6193 67.2455 303.782)" style="fill:#DEEFE6;" cx="346.857" cy="82.553" rx="11.259" ry="11.259"/>
		<circle style="fill:#DEEFE6;" cx="62.131" cy="194.219" r="11.259"/>
		
			<ellipse transform="matrix(0.7071 -0.7071 0.7071 0.7071 0.2705 151.9858)" style="fill:#DEEFE6;" cx="183.598" cy="75.666" rx="22.02" ry="22.02"/>
		<g>
			<path style="fill:#83D0DD;" d="M406.939,146.277H220.861c-7.122,0-12.896,5.774-12.896,12.896v268.37
				c0,7.122,5.774,12.897,12.896,12.897h186.078c7.123,0,12.896-5.774,12.896-12.897v-268.37
				C419.835,152.051,414.061,146.277,406.939,146.277z"/>
			<rect x="218.019" y="159.874" style="fill:#5E9FAA;" width="186.849" height="259.422"/>
			<rect x="220.475" y="156.986" style="fill:#FFFFFF;" width="186.849" height="259.422"/>
			<path style="fill:#0CA6B4;" d="M357.425,140.751h-22.201c-0.693,0-1.292-0.483-1.439-1.16l-1.949-8.948
				c-0.433-1.987-2.191-3.403-4.224-3.403h-7.572h-7.571c-2.033,0-3.791,1.416-4.224,3.403l-1.949,8.948
				c-0.147,0.677-0.747,1.16-1.439,1.16h-22.201c-0.382,0-0.691,0.309-0.691,0.691v23.106c0,2.798,2.268,5.066,5.066,5.066h66.018
				c2.798,0,5.066-2.268,5.066-5.066v-23.106C358.116,141.06,357.807,140.751,357.425,140.751z M320.041,136.893
				c-1.41,0-2.552-1.143-2.552-2.552c0-1.41,1.143-2.552,2.552-2.552c1.41,0,2.552,1.143,2.552,2.552
				C322.593,135.75,321.451,136.893,320.041,136.893z"/>
			<path style="fill:#6ED1DC;" d="M354.47,141.595h-68.858c-0.615,0-1.113,0.498-1.113,1.113c0,0.615,0.498,1.113,1.113,1.113
				h68.858c0.615,0,1.113-0.498,1.113-1.113C355.583,142.093,355.085,141.595,354.47,141.595z"/>
			<path style="fill:#6ED1DC;" d="M327.711,128.161H312.37c-0.403,0-0.729,0.327-0.729,0.729c0,0.403,0.327,0.729,0.729,0.729
				h15.341c0.403,0,0.729-0.327,0.729-0.729C328.441,128.488,328.114,128.161,327.711,128.161z"/>
			<path style="fill:#0C467C;" d="M379.694,208.928h-21.502c-2.182,0-3.958-1.776-3.958-3.958v-21.502
				c0-2.182,1.775-3.958,3.958-3.958h21.502c2.182,0,3.958,1.775,3.958,3.958v21.502
				C383.651,207.152,381.876,208.928,379.694,208.928z M358.192,180.738c-1.505,0-2.729,1.225-2.729,2.729v21.502
				c0,1.505,1.225,2.73,2.729,2.73h21.502c1.505,0,2.729-1.225,2.729-2.73v-21.502c0-1.505-1.225-2.729-2.729-2.729H358.192z"/>
			<path style="fill:#0C467C;" d="M346.243,182.816H244.762c-0.339,0-0.614-0.275-0.614-0.614c0-0.339,0.275-0.614,0.614-0.614
				h101.481c0.34,0,0.614,0.275,0.614,0.614C346.857,182.541,346.582,182.816,346.243,182.816z"/>
			<path style="fill:#0C467C;" d="M346.243,190.069H244.762c-0.339,0-0.614-0.275-0.614-0.614c0-0.339,0.275-0.614,0.614-0.614
				h101.481c0.34,0,0.614,0.275,0.614,0.614C346.857,189.794,346.582,190.069,346.243,190.069z"/>
			<path style="fill:#0C467C;" d="M346.243,197.322H244.762c-0.339,0-0.614-0.275-0.614-0.614c0-0.339,0.275-0.614,0.614-0.614
				h101.481c0.34,0,0.614,0.275,0.614,0.614C346.857,197.047,346.582,197.322,346.243,197.322z"/>
			<path style="fill:#0C467C;" d="M310.113,204.576h-65.351c-0.339,0-0.614-0.275-0.614-0.614c0-0.339,0.275-0.614,0.614-0.614
				h65.351c0.339,0,0.614,0.275,0.614,0.614C310.727,204.301,310.453,204.576,310.113,204.576z"/>
			<path style="fill:#0C467C;" d="M379.694,249.893h-21.502c-2.182,0-3.958-1.775-3.958-3.958v-21.501
				c0-2.182,1.775-3.958,3.958-3.958h21.502c2.182,0,3.958,1.775,3.958,3.958v21.501
				C383.651,248.118,381.876,249.893,379.694,249.893z M358.192,221.704c-1.505,0-2.729,1.225-2.729,2.729v21.501
				c0,1.505,1.225,2.73,2.729,2.73h21.502c1.505,0,2.729-1.225,2.729-2.73v-21.501c0-1.505-1.225-2.729-2.729-2.729H358.192z"/>
			<path style="fill:#0C467C;" d="M346.243,223.781H244.762c-0.339,0-0.614-0.275-0.614-0.614c0-0.339,0.275-0.614,0.614-0.614
				h101.481c0.34,0,0.614,0.275,0.614,0.614C346.857,223.506,346.582,223.781,346.243,223.781z"/>
			<path style="fill:#0C467C;" d="M346.243,231.035H244.762c-0.339,0-0.614-0.275-0.614-0.614c0-0.339,0.275-0.614,0.614-0.614
				h101.481c0.34,0,0.614,0.275,0.614,0.614C346.857,230.76,346.582,231.035,346.243,231.035z"/>
			<path style="fill:#0C467C;" d="M346.243,238.288H244.762c-0.339,0-0.614-0.275-0.614-0.614c0-0.339,0.275-0.614,0.614-0.614
				h101.481c0.34,0,0.614,0.275,0.614,0.614C346.857,238.013,346.582,238.288,346.243,238.288z"/>
			<path style="fill:#0C467C;" d="M324.238,245.541h-79.476c-0.339,0-0.614-0.275-0.614-0.614s0.275-0.614,0.614-0.614h79.476
				c0.34,0,0.614,0.275,0.614,0.614S324.577,245.541,324.238,245.541z"/>
			<path style="fill:#0C467C;" d="M379.694,290.859h-21.502c-2.182,0-3.958-1.775-3.958-3.958V265.4
				c0-2.183,1.775-3.958,3.958-3.958h21.502c2.182,0,3.958,1.775,3.958,3.958v21.501
				C383.651,289.084,381.876,290.859,379.694,290.859z M358.192,262.67c-1.505,0-2.729,1.225-2.729,2.73v21.501
				c0,1.505,1.225,2.73,2.729,2.73h21.502c1.505,0,2.729-1.225,2.729-2.73V265.4c0-1.505-1.225-2.73-2.729-2.73H358.192z"/>
			<path style="fill:#0C467C;" d="M346.243,264.747H244.762c-0.339,0-0.614-0.275-0.614-0.614c0-0.34,0.275-0.614,0.614-0.614
				h101.481c0.34,0,0.614,0.275,0.614,0.614C346.857,264.472,346.582,264.747,346.243,264.747z"/>
			<path style="fill:#0C467C;" d="M346.243,272H244.762c-0.339,0-0.614-0.275-0.614-0.614c0-0.34,0.275-0.614,0.614-0.614h101.481
				c0.34,0,0.614,0.275,0.614,0.614C346.857,271.725,346.582,272,346.243,272z"/>
			<path style="fill:#0C467C;" d="M346.243,279.253H244.762c-0.339,0-0.614-0.275-0.614-0.614c0-0.339,0.275-0.614,0.614-0.614
				h101.481c0.34,0,0.614,0.275,0.614,0.614C346.857,278.979,346.582,279.253,346.243,279.253z"/>
			<path style="fill:#0C467C;" d="M280.84,286.506h-36.078c-0.339,0-0.614-0.275-0.614-0.614c0-0.34,0.275-0.614,0.614-0.614h36.078
				c0.339,0,0.614,0.275,0.614,0.614C281.454,286.232,281.179,286.506,280.84,286.506z"/>
			<path style="fill:#0C467C;" d="M379.694,331.825h-21.502c-2.182,0-3.958-1.775-3.958-3.958v-21.503
				c0-2.182,1.775-3.957,3.958-3.957h21.502c2.182,0,3.958,1.775,3.958,3.957v21.503
				C383.651,330.05,381.876,331.825,379.694,331.825z M358.192,303.636c-1.505,0-2.729,1.225-2.729,2.729v21.503
				c0,1.505,1.225,2.73,2.729,2.73h21.502c1.505,0,2.729-1.225,2.729-2.73v-21.503c0-1.504-1.225-2.729-2.729-2.729H358.192z"/>
			<path style="fill:#0C467C;" d="M346.243,305.713H244.762c-0.339,0-0.614-0.275-0.614-0.614c0-0.34,0.275-0.614,0.614-0.614
				h101.481c0.34,0,0.614,0.275,0.614,0.614C346.857,305.438,346.582,305.713,346.243,305.713z"/>
			<path style="fill:#0C467C;" d="M346.243,312.966H244.762c-0.339,0-0.614-0.275-0.614-0.614c0-0.339,0.275-0.614,0.614-0.614
				h101.481c0.34,0,0.614,0.275,0.614,0.614C346.857,312.691,346.582,312.966,346.243,312.966z"/>
			<path style="fill:#0C467C;" d="M346.243,320.219H244.762c-0.339,0-0.614-0.275-0.614-0.614c0-0.339,0.275-0.614,0.614-0.614
				h101.481c0.34,0,0.614,0.275,0.614,0.614C346.857,319.944,346.582,320.219,346.243,320.219z"/>
			<path style="fill:#0C467C;" d="M291.69,327.472h-46.927c-0.339,0-0.614-0.275-0.614-0.614c0-0.339,0.275-0.614,0.614-0.614
				h46.927c0.339,0,0.614,0.275,0.614,0.614C292.304,327.198,292.029,327.472,291.69,327.472z"/>
			<path style="fill:#0C467C;" d="M379.694,372.79h-21.502c-2.182,0-3.958-1.775-3.958-3.957V347.33
				c0-2.182,1.775-3.957,3.958-3.957h21.502c2.182,0,3.958,1.775,3.958,3.957v21.502C383.651,371.015,381.876,372.79,379.694,372.79
				z M358.192,344.602c-1.505,0-2.729,1.225-2.729,2.729v21.502c0,1.504,1.225,2.729,2.729,2.729h21.502
				c1.505,0,2.729-1.225,2.729-2.729V347.33c0-1.504-1.225-2.729-2.729-2.729H358.192z"/>
			<path style="fill:#0C467C;" d="M346.243,346.678H244.762c-0.339,0-0.614-0.275-0.614-0.614c0-0.339,0.275-0.614,0.614-0.614
				h101.481c0.34,0,0.614,0.275,0.614,0.614C346.857,346.403,346.582,346.678,346.243,346.678z"/>
			<path style="fill:#0C467C;" d="M346.243,353.932H244.762c-0.339,0-0.614-0.275-0.614-0.614c0-0.339,0.275-0.614,0.614-0.614
				h101.481c0.34,0,0.614,0.275,0.614,0.614C346.857,353.658,346.582,353.932,346.243,353.932z"/>
			<path style="fill:#0C467C;" d="M346.243,361.185H244.762c-0.339,0-0.614-0.275-0.614-0.614c0-0.34,0.275-0.614,0.614-0.614
				h101.481c0.34,0,0.614,0.275,0.614,0.614C346.857,360.91,346.582,361.185,346.243,361.185z"/>
			<path style="fill:#0C467C;" d="M259.345,368.438h-14.583c-0.339,0-0.614-0.275-0.614-0.614c0-0.339,0.275-0.614,0.614-0.614
				h14.583c0.34,0,0.614,0.275,0.614,0.614C259.959,368.164,259.685,368.438,259.345,368.438z"/>
			<path style="fill:#25A8C1;" d="M366.611,201.241c-0.461,0-0.923-0.13-1.33-0.391l-11.763-7.575
				c-1.141-0.735-1.47-2.255-0.735-3.396c0.735-1.141,2.255-1.471,3.396-0.735l10.277,6.619l23.748-19.008
				c1.061-0.848,2.606-0.675,3.453,0.383c0.847,1.06,0.677,2.605-0.383,3.453l-25.128,20.112
				C367.7,201.06,367.156,201.241,366.611,201.241z"/>
			<path style="fill:#25A8C1;" d="M366.611,242.936c-0.461,0-0.923-0.13-1.33-0.391l-11.763-7.575
				c-1.141-0.735-1.47-2.255-0.735-3.396c0.735-1.14,2.255-1.471,3.396-0.735l10.277,6.618l23.748-19.008
				c1.061-0.847,2.606-0.676,3.453,0.383c0.847,1.06,0.677,2.605-0.383,3.453l-25.128,20.112
				C367.7,242.755,367.156,242.936,366.611,242.936z"/>
			<path style="fill:#25A8C1;" d="M366.611,284.63c-0.461,0-0.923-0.13-1.33-0.391l-11.763-7.574
				c-1.14-0.734-1.47-2.255-0.735-3.396c0.735-1.139,2.254-1.47,3.396-0.735l10.277,6.619l23.748-19.009
				c1.061-0.848,2.606-0.674,3.453,0.383c0.847,1.059,0.677,2.605-0.383,3.453l-25.128,20.112
				C367.7,284.449,367.156,284.63,366.611,284.63z"/>
			<path style="fill:#25A8C1;" d="M366.611,326.324c-0.461,0-0.923-0.13-1.33-0.391l-11.763-7.575
				c-1.14-0.734-1.47-2.255-0.735-3.396c0.735-1.141,2.254-1.47,3.396-0.735l10.277,6.618l23.748-19.009
				c1.061-0.848,2.606-0.674,3.453,0.383c0.847,1.059,0.677,2.605-0.383,3.453l-25.128,20.112
				C367.7,326.143,367.156,326.324,366.611,326.324z"/>
			<path style="fill:#25A8C1;" d="M366.611,368.02c-0.461,0-0.923-0.13-1.33-0.391l-11.763-7.574
				c-1.14-0.734-1.47-2.255-0.735-3.396c0.735-1.141,2.254-1.471,3.396-0.735l10.277,6.619l23.748-19.009
				c1.061-0.848,2.606-0.675,3.453,0.383c0.847,1.059,0.677,2.605-0.383,3.453l-25.128,20.112
				C367.7,367.839,367.156,368.02,366.611,368.02z"/>
		</g>
		<g>
			<polygon style="fill:#FFC5B9;" points="179.881,424.733 180.999,428.672 180.124,431.783 193.689,434.312 188.973,428.526 
				185.667,420.892 			"/>
			<path style="fill:#F5A296;" d="M187.306,424.661l-1.22-2.864l-6.109,3.374l0.449,1.52c0.149,0.506,0.676,0.8,1.185,0.661
				l5.057-1.376C187.236,425.822,187.537,425.202,187.306,424.661z"/>
			<path style="fill:#FFC5B9;" d="M125.231,426.046l-0.973,8.217h8.752l-1.099-1.868c-0.232-0.394-0.311-0.859-0.223-1.307
				l0.981-4.993L125.231,426.046z"/>
			<path style="fill:#F5A296;" d="M125.231,426.046l-0.241,2.037c-0.092,0.779,0.516,1.464,1.301,1.464h4.623
				c0.626,0,1.164-0.443,1.285-1.057l0.471-2.395L125.231,426.046z"/>
			<polygon style="fill:#FF8269;" points="158.255,230.205 168.451,187.22 160.984,141.68 152.642,143.85 154.711,187.026 
				145.884,221.771 			"/>
			<path style="fill:#203259;" d="M126.155,181.678c0,0,4.117-5.251,11.703-4.376c8.799,1.015,10.76,5.564,12.024,8.641
				c1.264,3.077,5.464,20.124,0.292,29.168c-4.509,7.884-12.316,9.062-12.316,9.062l-16.857,2.042l-4.862-1.75
				c0,0,2.92-12.791,3.598-21.685S117.5,184.886,126.155,181.678z"/>
			<path style="fill:#EF6C56;" d="M165.274,187.773c-0.792,0.138-1.439,0.711-1.671,1.481l-11,36.571l5.651,4.38l9.451-39.848
				C168.059,188.872,166.778,187.511,165.274,187.773z"/>
			<path style="fill:#344676;" d="M163.212,288.499l-39.432,8.324c0,0-4.279-1.621-5.445,7.326
				c-0.719,5.509,2.323,14.775,4.767,21.085l0.552,101.073c0.003,0.61,0.498,1.102,1.108,1.102h8.47
				c0.566,0,1.041-0.427,1.102-0.989l11.14-103.264l32.406,100.921c0.318,0.992,1.37,1.549,2.37,1.254l6.349-1.871
				c0.944-0.278,1.524-1.225,1.344-2.192L163.212,288.499z"/>
			<path style="fill:#203259;" d="M164.4,294.876l-1.188-6.378l-39.432,8.324c0,0-4.279-1.621-5.445,7.326
				c-0.719,5.509,2.323,14.775,4.767,21.085l0.551,100.906c0.004,0.702,0.574,1.269,1.276,1.269c0.698,0,1.267-0.561,1.276-1.26
				l1.281-102.141l-0.382-17.104c-0.041-1.823,1.277-3.393,3.08-3.669l31.73-4.853C163.582,298.125,164.709,296.538,164.4,294.876z"
				/>
			<g>
				
					<rect x="52.607" y="114.233" transform="matrix(0.9607 -0.2777 0.2777 0.9607 -30.4665 40.5938)" style="fill:#25A8C1;" width="150.919" height="27.228"/>
				
					<rect x="49.96" y="114.607" transform="matrix(0.9607 -0.2777 0.2777 0.9607 -28.0282 39.4987)" style="fill:#88C7D0;" width="150.919" height="8.168"/>
				
					<rect x="55.541" y="134.951" transform="matrix(0.9607 -0.2777 0.2777 0.9607 -33.1702 41.808)" style="fill:#1B8F9E;" width="150.919" height="6.094"/>
				
					<rect x="41.466" y="136.863" transform="matrix(-0.9607 0.2777 -0.2777 -0.9607 137.2888 282.1555)" style="fill:#D4D4D2;" width="14.392" height="27.876"/>
				<path style="fill:#F5A296;" d="M26.824,142.605c-1.531,0.443-2.413,2.042-1.97,3.572l6.139,21.237
					c0.443,1.531,2.042,2.413,3.573,1.97l11.054-3.195l-7.741-26.78L26.824,142.605z"/>
				<path style="fill:#FFC5B9;" d="M26.824,142.605c-1.531,0.443-2.413,2.042-1.97,3.572l3.07,10.618l13.826-3.997l-3.871-13.39
					L26.824,142.605z"/>
				<path style="fill:#FF8269;" d="M29.814,163.335l1.179,4.079c0.443,1.531,2.042,2.413,3.573,1.97l11.054-3.195l-1.98-6.851
					L29.814,163.335z"/>
				
					<rect x="39.153" y="137.19" transform="matrix(-0.9607 0.2777 -0.2777 -0.9607 130.5307 267.1072)" style="fill:#ECE9EC;" width="14.392" height="11.215"/>
				
					<rect x="44.68" y="159.551" transform="matrix(-0.9607 0.2777 -0.2777 -0.9607 146.6766 303.0591)" style="fill:#B5B7BF;" width="14.392" height="4.732"/>
				<polygon style="fill:#FDF2F8;" points="196.777,93.812 204.339,119.969 245.024,93.878 				"/>
				<polygon style="fill:#E1D6F6;" points="243.946,94.507 202.07,112.122 204.339,119.969 				"/>
				<polygon style="fill:#25A8C1;" points="230.311,103.313 245.024,93.878 228.033,93.855 				"/>
				<polygon style="fill:#88C7D0;" points="228.906,97.477 245.024,93.878 228.033,93.855 				"/>
			</g>
			<path style="fill:#FF8269;" d="M160.861,257.407c0,0,5.705-9.854,4.927-13.743c-0.778-3.89-13.225-22.041-13.225-22.041
				l-8.064-3.808c-0.837-0.395-1.752-0.6-2.678-0.6h-10.817c-0.83,0-1.65,0.164-2.416,0.484c-2.709,1.133-9.462,3.937-12.33,4.962
				c-3.63,1.297,0,16.855,0,16.855s8.112,19.599,9.668,27.379c1.556,7.779-6.677,31.182-6.677,31.182
				c25.451,2.937,47.056-5.251,47.056-5.251L160.861,257.407z"/>
			<path style="fill:#FF8269;" d="M114.987,238.649l-29.845-29.474L78.06,165.61l9.812-2.355l10.235,39.179l20.119,19.486
				c0,0,5.103,7.97,2.91,15.133C120.318,239.728,116.978,240.615,114.987,238.649z"/>
			<path style="fill:#FFC5B9;" d="M85.401,158.869c0,0,0.908-4.019,0-5.057c-0.908-1.037-7.341-6.872-7.341-6.872l-1.128-3.682
				c-0.678-2.212-3.092-3.383-5.249-2.544c-1.753,0.682-2.79,2.498-2.486,4.354l0.775,4.725l1.556,2.852l6.094,6.094l1.513,6.612
				l7.434-1.037L85.401,158.869z"/>
			<path style="fill:#FFC5B9;" d="M153.725,143.569l-0.14-4.251l-1.841-4.145l7.948-2.547l2.891-4.704
				c0.183-0.297,0.456-0.528,0.78-0.657c0,0,2.876-1.38,2.662-0.724c-0.648,1.977-1.848,5.472-1.848,5.472
				c-0.061,0.338-0.205,0.656-0.418,0.925l-4.703,5.976l0.689,3.089L153.725,143.569z"/>
			<path style="fill:#FFC5B9;" d="M143.172,227.349c0,0-4.149,0.195-7.39-0.843c-3.241-1.037-7.16-7.892-6.742-8.492
				c0.418-0.6,1.232-0.799,1.232-0.799v-12.425h11.734v12.706c0,0,3.112,2.658,4.149,4.797
				C147.191,224.431,147.062,227.349,143.172,227.349z"/>
			<path style="fill:#F5A296;" d="M139.211,214.995l2.737-0.469c0.02-0.003,0.037-0.012,0.057-0.016v-9.722h-11.734v4.74
				C131.462,213.273,135.229,215.677,139.211,214.995z"/>
			<path style="fill:#FFC5B9;" d="M146.677,192.927c-1.317,1.1-6.033,1.051-7.638,0.711c-5-1.061-7.562-4.033-7.562-4.033
				c1.991,3.884-1.702,9.934-2.507,11.173l1.005,5.867c0.746,4.355,4.881,7.281,9.236,6.535l2.737-0.469
				c4.355-0.746,7.281-4.881,6.535-9.236L146.677,192.927z"/>
			<path style="fill:#F5A296;" d="M81.324,154.125l-3.249-3.637c-0.488-0.547-1.288-0.686-1.932-0.338l-3.415,1.847
				c-0.598,0.323-0.716,1.131-0.235,1.612l4.122,4.122c0.607,0.607,1.526,0.776,2.31,0.424l1.705-0.765
				C81.904,156.817,82.256,155.168,81.324,154.125z"/>
			<path style="fill:#EF6C56;" d="M157.826,248.249l-21.394,4.279c-1.088,0.218-1.917,1.101-2.066,2.2l-0.418,3.081
				c-0.24,1.772,1.339,3.252,3.092,2.898l20.561-4.163c0.866-0.175,1.583-0.778,1.905-1.601l1.251-3.197
				C161.506,249.831,159.842,247.845,157.826,248.249z"/>
			<path style="fill:#EF6C56;" d="M95.845,207.147c-1.385-1.402-3.523-1.734-5.268-0.82c-2.688,1.409-3.229,5.026-1.069,7.159
				l25.479,25.163c1.954,1.93,5.283,1.133,6.115-1.484c0.408-1.284,0.567-2.594,0.572-3.881L95.845,207.147z"/>
			<path style="fill:#203259;" d="M181.578,422.994l-28.41-109.872c-0.625-2.419-3.501-3.434-5.507-1.944l-0.34,0.253l-1.849,11.724
				l32.403,100.912c0.32,0.997,1.377,1.556,2.381,1.26C181.254,425.033,181.839,424.001,181.578,422.994z"/>
			<path style="fill:#F5A296;" d="M151.744,135.173l0.583,1.312c0.237,0.533,0.848,0.789,1.394,0.585l4.324-1.617
				c0.273-0.102,0.495-0.309,0.616-0.574l1.03-2.252L151.744,135.173z"/>
			<path style="fill:#203259;" d="M135.475,199.287c-0.151,0-0.277-0.118-0.287-0.269c-0.037-0.606,0.757-1.601,1.65-1.827
				c0.46-0.121,1.317-0.121,1.92,1.164c0.067,0.144,0.005,0.315-0.139,0.383c-0.144,0.066-0.315,0.006-0.382-0.138
				c-0.326-0.697-0.75-0.982-1.257-0.853c-0.696,0.177-1.234,0.986-1.219,1.235c0.009,0.159-0.111,0.295-0.269,0.305
				C135.486,199.287,135.48,199.287,135.475,199.287z"/>
			<path style="fill:#203259;" d="M145.597,198.497c-0.148,0-0.274-0.114-0.285-0.265c-0.025-0.311-0.669-1.044-1.257-1.098
				c-0.406-0.026-0.705,0.293-0.888,0.979c-0.04,0.153-0.198,0.247-0.352,0.203c-0.153-0.04-0.244-0.197-0.204-0.351
				c0.348-1.308,1.083-1.44,1.495-1.402c0.825,0.075,1.729,1.009,1.777,1.624c0.012,0.158-0.105,0.296-0.264,0.309
				C145.612,198.497,145.605,198.497,145.597,198.497z"/>
			<path style="fill:#344676;" d="M149.882,185.943c-1.264-3.078-3.225-7.626-12.024-8.641c-7.586-0.875-11.703,4.376-11.703,4.376
				c-7.758,2.877-6.225,10.407-6.312,18.343c0.402-1.505,0.808-3.159,1.054-4.525c0.191-1.059,1.021-1.898,2.083-2.076
				c1.598-0.268,3.746-0.995,4.374-2.957c1.037-3.241,0.583-6.872,0.583-6.872s6.85,5.705,10.848,5.575
				c2.474-0.08,5.106-0.607,6.752-0.997c1.018-0.241,2.071,0.206,2.605,1.106c1.208,2.039,3.265,5.831,4.348,9.643
				C151.97,192.883,150.536,187.537,149.882,185.943z"/>
			<path style="fill:#203259;" d="M138.721,195.148c0,0-1.9-1.592-3.455-1.391c-1.556,0.201-3.048,1.673-2.618,2.142
				c0.165,0.179,0.842-0.476,1.776-0.897c0.933-0.421,1.995-0.497,2.819-0.093C138.066,195.313,139.046,195.734,138.721,195.148z"/>
			<path style="fill:#203259;" d="M141.53,194.883c0,0,1.297-1.841,2.616-1.865c1.319-0.024,2.803,1.212,2.527,1.736
				c-0.105,0.2-0.777-0.348-1.619-0.63c-0.843-0.281-1.733-0.204-2.344,0.312C142.099,194.952,141.361,195.507,141.53,194.883z"/>
			<path style="fill:#F5A296;" d="M141.505,198.497c0,0,2.574,4.573,2.445,4.898c-0.13,0.324-1.907,1.426-2.445,0.908
				c-0.538-0.519,1.207-0.778,1.097-1.426C142.491,202.228,140.749,197.128,141.505,198.497z"/>
			<path style="fill:#DF93B2;" d="M147.263,200.251c0.037,0.403-0.572,0.788-1.361,0.861c-0.789,0.073-1.458-0.194-1.496-0.597
				c-0.037-0.402,0.572-0.788,1.361-0.861C146.556,199.582,147.226,199.849,147.263,200.251z"/>
			<path style="fill:#DF93B2;" d="M138.573,201.22c0.037,0.402-0.572,0.788-1.361,0.861c-0.789,0.073-1.459-0.194-1.496-0.596
				c-0.037-0.403,0.572-0.788,1.361-0.861S138.535,200.817,138.573,201.22z"/>
			<path style="fill:#DF93B2;" d="M139.347,206.442c0,0,4.667-0.324,6.061-0.908c0,0-0.808,2.074-2.295,2.626
				C141.627,208.711,139.696,207.09,139.347,206.442z"/>
			<path style="fill:#F8FBFC;" d="M140.216,207.345c1.298-0.103,3.114-0.298,4.559-0.644c0.414-0.612,0.634-1.167,0.634-1.167
				c-1.395,0.583-6.061,0.908-6.061,0.908C139.469,206.669,139.792,207.015,140.216,207.345z"/>
			<path style="fill:#203259;" d="M124.452,432.631c0,0-0.534,0.935-0.534,1.632s-0.421,6.177,0,6.177c0.421,0,11.215,0,11.734,0
				c0.519,0,0.214-2.301-0.386-2.984c-0.828-0.943-2.172-3.969-2.718-4.677c-0.152-0.197-0.393-0.303-0.641-0.284L124.452,432.631z"
				/>
			<path style="fill:#344676;" d="M132.735,435.187h-6.58c-0.806,0-1.459,0.653-1.459,1.459c0,0.806,0.653,1.459,1.459,1.459h6.58
				c0.806,0,1.459-0.653,1.459-1.459C134.193,435.84,133.54,435.187,132.735,435.187z"/>
			<path style="fill:#203259;" d="M200.741,437.853c-0.015-0.416-0.279-0.782-0.669-0.928l-3.558-1.331l-5.176-4.167
				c0,0-1.246,0.94-2.267,0.94c-1.021,0-8.488-2.212-8.488-2.212l-1.777,2.999c-0.459,0.774-0.105,1.772,0.742,2.077
				c4.091,1.472,14.539,5.21,15.163,5.21h5.056c0.585,0,1.052-0.485,1.031-1.07L200.741,437.853z"/>
			<path style="fill:#344676;" d="M198.41,437.841c0.308,0.106,0.645,0.082,0.935-0.068l1.115-0.576
				c-0.107-0.116-0.234-0.215-0.388-0.273l-3.558-1.331c0,0-1.063,0.589-1.706,1.003C194.14,437.026,198.41,437.841,198.41,437.841z
				"/>
		</g>
		<path style="fill:#A0BFCF;" d="M420.574,440.44H90.606c-1.663,0-3.011,1.348-3.011,3.011c0,1.663,1.348,3.011,3.011,3.011h329.968
			c1.663,0,3.011-1.348,3.011-3.011C423.585,441.788,422.237,440.44,420.574,440.44z"/>
		<path style="fill:#A0BFCF;" d="M74.221,440.44h-33.03c-1.663,0-3.011,1.348-3.011,3.011c0,1.663,1.348,3.011,3.011,3.011h33.03
			c1.663,0,3.011-1.348,3.011-3.011C77.232,441.788,75.884,440.44,74.221,440.44z"/>
		<path style="fill:#A0BFCF;" d="M469.989,440.44h-33.03c-1.663,0-3.011,1.348-3.011,3.011c0,1.663,1.348,3.011,3.011,3.011h33.03
			c1.663,0,3.011-1.348,3.011-3.011C473,441.788,471.652,440.44,469.989,440.44z"/>
	</g>
</g>
<g id="DESIGNED_BY_FREEPIK">
	<g>
		<g id="XMLID_319_">
			<g id="XMLID_338_">
				<path id="XMLID_346_" style="fill:#9FB8C8;" d="M261.442,464.892c-0.49,0.502-0.91,1.054-1.255,1.646l-0.527-0.273
					c-0.076-0.337-0.396-0.569-0.746-0.528c-0.375,0.044-0.643,0.384-0.599,0.759c0.044,0.375,0.384,0.643,0.758,0.599
					c0.074-0.009,0.144-0.029,0.208-0.059l0.511,0.265c-0.284,0.627-0.49,1.289-0.611,1.975l0.845,0.149
					c0.26-1.479,0.962-2.839,2.029-3.932L261.442,464.892z"/>
				<path id="XMLID_345_" style="fill:#9FB8C8;" d="M267.656,462.285c-0.194,0-0.386,0.007-0.577,0.019l-0.083-0.709
					c0.212-0.169,0.335-0.44,0.301-0.73c-0.052-0.445-0.456-0.763-0.901-0.711c-0.445,0.052-0.763,0.455-0.711,0.901
					c0.034,0.288,0.214,0.522,0.458,0.638l0.083,0.707c-0.808,0.132-1.589,0.376-2.332,0.732l0.37,0.774
					c1.058-0.506,2.199-0.762,3.392-0.762c0.562,0,1.124,0.06,1.67,0.178l0.182-0.839
					C268.903,462.352,268.279,462.285,267.656,462.285z"/>
				<path id="XMLID_344_" style="fill:#9FB8C8;" d="M275.133,465.17c0.375-0.046,0.641-0.387,0.595-0.761
					c-0.046-0.375-0.387-0.641-0.761-0.595c-0.35,0.043-0.606,0.344-0.6,0.689l-0.471,0.411c-0.473-0.487-1.007-0.92-1.594-1.29
					l-0.458,0.726c1.284,0.809,2.288,1.955,2.903,3.313l0.782-0.354c-0.284-0.627-0.643-1.214-1.067-1.75l0.455-0.397
					C274.986,465.175,275.059,465.179,275.133,465.17z"/>
				<path id="XMLID_343_" style="fill:#9FB8C8;" d="M267.036,473.845c-0.437,0.026-0.878,0.039-1.31,0.039
					c-0.997,0-1.962-0.069-2.807-0.203c-0.442-0.07-0.958-0.176-1.438-0.331c1.185,2.107,3.476,3.539,6.102,3.539
					c3.233,0,5.959-2.17,6.737-5.1c-0.772,0.509-1.705,0.935-2.784,1.271C270.201,473.478,268.643,473.749,267.036,473.845z"/>
				<path id="XMLID_339_" style="fill:#9FB8C8;" d="M267.656,464.002c-3.796,0-6.884,3.019-6.884,6.73
					c0,0.482,0.052,0.962,0.155,1.428c0.763,0.547,3.064,1.008,6.055,0.828c3.261-0.196,5.998-1.084,7.556-2.444
					c-0.006-0.221-0.023-0.442-0.051-0.659C274.056,466.531,271.12,464.002,267.656,464.002z M265.211,471.38
					c-1.155,0-2.095-0.94-2.095-2.095c0-1.155,0.94-2.095,2.095-2.095c1.155,0,2.095,0.94,2.095,2.095
					C267.306,470.44,266.366,471.38,265.211,471.38z M270.576,470.351c-0.849,0-1.54-0.691-1.54-1.54
					c0-0.849,0.691-1.541,1.54-1.541c0.849,0,1.541,0.691,1.541,1.541C272.116,469.66,271.425,470.351,270.576,470.351z"/>
			</g>
			<path id="XMLID_336_" style="fill:#9FB8C8;" d="M285.779,466.116c-0.334-0.131-0.912-0.35-1.565-0.269
				c-0.624,0.078-0.956,0.386-0.956,1.14v0.981h2.523v1.945h-2.523v6.177h-2.188v-6.177h-1.517v-1.945h1.517v-1.006
				c0-1.902,1.014-3.151,2.908-3.151c0.728,0,1.31,0.138,1.8,0.349L285.779,466.116z"/>
			<path id="XMLID_334_" style="fill:#9FB8C8;" d="M291.104,469.89c-0.2-0.034-0.405-0.052-0.596-0.052
				c-1.014,0-1.71,0.62-1.71,1.827v4.425h-2.188v-8.122h2.12v0.888c0.511-0.763,1.291-1.106,2.288-1.106
				c0.469,0,0.96,0.144,1.239,0.381L291.104,469.89z"/>
			<path id="XMLID_331_" style="fill:#9FB8C8;" d="M299.786,472.017c0,0.251-0.017,0.553-0.042,0.738h-5.758
				c0.235,1.173,1.056,1.685,2.087,1.685c0.704,0,1.467-0.285,2.053-0.779l1.282,1.408c-0.922,0.846-2.095,1.232-3.461,1.232
				c-2.489,0-4.216-1.693-4.216-4.249c0-2.556,1.676-4.3,4.107-4.3C298.177,467.75,299.778,469.485,299.786,472.017z
				 M293.995,471.262h3.595c-0.201-1.039-0.83-1.626-1.768-1.626C294.791,469.636,294.187,470.257,293.995,471.262z"/>
			<path id="XMLID_328_" style="fill:#9FB8C8;" d="M308.453,472.017c0,0.251-0.017,0.553-0.042,0.738h-5.758
				c0.235,1.173,1.056,1.685,2.087,1.685c0.704,0,1.467-0.285,2.053-0.779l1.282,1.408c-0.922,0.846-2.095,1.232-3.461,1.232
				c-2.489,0-4.216-1.693-4.216-4.249c0-2.556,1.676-4.3,4.107-4.3C306.843,467.75,308.444,469.485,308.453,472.017z
				 M302.661,471.262h3.596c-0.201-1.039-0.83-1.626-1.768-1.626C303.457,469.636,302.854,470.257,302.661,471.262z"/>
			<path id="XMLID_325_" style="fill:#9FB8C8;" d="M317.903,472.025c0,2.439-1.693,4.275-3.931,4.275
				c-1.09,0-1.861-0.428-2.389-1.056v4.199h-2.179v-11.474h2.137v0.897c0.528-0.662,1.307-1.115,2.422-1.115
				C316.21,467.75,317.903,469.586,317.903,472.025z M311.475,472.025c0,1.282,0.846,2.238,2.087,2.238
				c1.291,0,2.095-0.997,2.095-2.238c0-1.24-0.805-2.238-2.095-2.238C312.321,469.787,311.475,470.742,311.475,472.025z"/>
			<path id="XMLID_322_" style="fill:#9FB8C8;" d="M321.418,465.311c0,0.788-0.612,1.391-1.4,1.391
				c-0.788,0-1.391-0.603-1.391-1.391c0-0.788,0.604-1.408,1.391-1.408C320.806,463.903,321.418,464.524,321.418,465.311z
				 M321.124,476.09h-2.188v-8.122h2.188V476.09z"/>
			<path id="XMLID_320_" style="fill:#9FB8C8;" d="M324.775,470.86l3.059-2.892h2.682l-3.939,3.822l3.964,4.3h-2.69l-3.076-3.285
				v3.285h-2.188v-12.069h2.188V470.86z"/>
		</g>
		<g>
			<path style="fill:#9FB8C8;" d="M175.729,476.016v-1.194c-0.597,0.813-1.576,1.393-2.704,1.393c-2.09,0-3.566-1.592-3.566-4.196
				c0-2.555,1.46-4.213,3.566-4.213c1.078,0,2.057,0.531,2.704,1.41v-4.263h1.244v11.064H175.729z M175.729,473.843v-3.633
				c-0.448-0.697-1.41-1.294-2.405-1.294c-1.609,0-2.571,1.327-2.571,3.102c0,1.775,0.962,3.085,2.571,3.085
				C174.319,475.104,175.281,474.54,175.729,473.843z"/>
			<path style="fill:#9FB8C8;" d="M178.582,472.002c0-2.322,1.659-4.197,3.948-4.197c2.422,0,3.848,1.891,3.848,4.296v0.316h-6.486
				c0.1,1.509,1.161,2.77,2.886,2.77c0.912,0,1.841-0.365,2.471-1.012l0.597,0.813c-0.796,0.796-1.874,1.227-3.185,1.227
				C180.29,476.215,178.582,474.507,178.582,472.002z M182.513,468.834c-1.709,0-2.555,1.443-2.621,2.67h5.258
				C185.134,470.31,184.337,468.834,182.513,468.834z"/>
			<path style="fill:#9FB8C8;" d="M187.273,474.955l0.647-0.895c0.531,0.614,1.543,1.145,2.637,1.145
				c1.228,0,1.891-0.581,1.891-1.377c0-1.94-4.96-0.746-4.96-3.716c0-1.244,1.078-2.306,2.985-2.306c1.36,0,2.323,0.514,2.969,1.161
				l-0.581,0.863c-0.481-0.581-1.36-1.012-2.389-1.012c-1.095,0-1.775,0.547-1.775,1.261c0,1.758,4.96,0.597,4.96,3.716
				c0,1.344-1.078,2.422-3.151,2.422C189.197,476.215,188.086,475.817,187.273,474.955z"/>
			<path style="fill:#9FB8C8;" d="M195.053,466.031c0-0.464,0.382-0.846,0.829-0.846c0.465,0,0.846,0.381,0.846,0.846
				c0,0.465-0.381,0.829-0.846,0.829C195.434,466.86,195.053,466.495,195.053,466.031z M195.268,476.016v-8.012h1.244v8.012H195.268
				z"/>
			<path style="fill:#9FB8C8;" d="M198.569,478.073l0.63-0.929c0.663,0.796,1.46,1.095,2.604,1.095c1.327,0,2.571-0.647,2.571-2.405
				v-1.145c-0.581,0.813-1.559,1.427-2.687,1.427c-2.09,0-3.566-1.559-3.566-4.147c0-2.571,1.46-4.163,3.566-4.163
				c1.078,0,2.04,0.531,2.687,1.41v-1.211h1.244v7.78c0,2.654-1.858,3.483-3.815,3.483
				C200.443,479.267,199.514,479.002,198.569,478.073z M204.374,473.711v-3.5c-0.432-0.697-1.393-1.294-2.389-1.294
				c-1.609,0-2.571,1.277-2.571,3.052c0,1.758,0.962,3.052,2.571,3.052C202.981,475.021,203.943,474.408,204.374,473.711z"/>
			<path style="fill:#9FB8C8;" d="M213.099,476.016v-5.242c0-1.41-0.713-1.858-1.791-1.858c-0.979,0-1.908,0.597-2.372,1.244v5.855
				h-1.244v-8.012h1.244v1.161c0.564-0.663,1.658-1.36,2.853-1.36c1.675,0,2.555,0.846,2.555,2.588v5.623H213.099z"/>
			<path style="fill:#9FB8C8;" d="M215.952,472.002c0-2.322,1.659-4.197,3.948-4.197c2.422,0,3.848,1.891,3.848,4.296v0.316h-6.486
				c0.099,1.509,1.161,2.77,2.886,2.77c0.912,0,1.841-0.365,2.472-1.012l0.597,0.813c-0.796,0.796-1.874,1.227-3.185,1.227
				C217.66,476.215,215.952,474.507,215.952,472.002z M219.883,468.834c-1.708,0-2.555,1.443-2.621,2.67h5.258
				C222.503,470.31,221.707,468.834,219.883,468.834z"/>
			<path style="fill:#9FB8C8;" d="M231.146,476.016v-1.194c-0.597,0.813-1.576,1.393-2.704,1.393c-2.09,0-3.566-1.592-3.566-4.196
				c0-2.555,1.46-4.213,3.566-4.213c1.078,0,2.057,0.531,2.704,1.41v-4.263h1.244v11.064H231.146z M231.146,473.843v-3.633
				c-0.448-0.697-1.41-1.294-2.405-1.294c-1.609,0-2.571,1.327-2.571,3.102c0,1.775,0.962,3.085,2.571,3.085
				C229.736,475.104,230.697,474.54,231.146,473.843z"/>
			<path style="fill:#9FB8C8;" d="M238.327,476.016v-11.064h1.244v4.263c0.647-0.879,1.609-1.41,2.704-1.41
				c2.09,0,3.566,1.659,3.566,4.213c0,2.604-1.476,4.196-3.566,4.196c-1.128,0-2.107-0.581-2.704-1.393v1.194H238.327z
				 M241.96,475.104c1.626,0,2.588-1.31,2.588-3.085c0-1.775-0.962-3.102-2.588-3.102c-0.979,0-1.957,0.597-2.388,1.294v3.633
				C240.003,474.54,240.981,475.104,241.96,475.104z"/>
			<path style="fill:#9FB8C8;" d="M247.201,478.023c0.182,0.083,0.481,0.133,0.68,0.133c0.547,0,0.912-0.182,1.194-0.846
				l0.531-1.211l-3.351-8.095h1.344l2.671,6.569l2.654-6.569h1.36l-4.014,9.637c-0.481,1.161-1.294,1.609-2.356,1.625
				c-0.265,0-0.68-0.05-0.912-0.116L247.201,478.023z"/>
		</g>
	</g>
</g>
</svg>
