<?xml version="1.0" encoding="utf-8"?>
<!-- Generator: Adobe Illustrator 27.5.0, SVG Export Plug-In . SVG Version: 6.00 Build 0)  -->
<svg version="1.1" id="Capa_1" xmlns="http://www.w3.org/2000/svg" xmlns:xlink="http://www.w3.org/1999/xlink" x="0px" y="0px"
	 viewBox="0 0 378.857 425.197" style="enable-background:new 0 0 378.857 425.197;" xml:space="preserve">
<rect y="0" style="fill:#FFFFFF;" width="378.857" height="425.197"/>
<path style="fill:#B2B2B2;" d="M248.674,397.597c0,4.614-26.525,8.355-59.246,8.355c-32.72,0-59.245-3.741-59.245-8.355
	c0-4.615,26.525-8.355,59.245-8.355C222.148,389.241,248.674,392.982,248.674,397.597z"/>
<g>
	<g>
		<g>
			<path style="fill:#7C7C7B;" d="M240.705,291.515c0,2.871-21.684,5.198-48.43,5.198c-26.748,0-48.432-2.327-48.432-5.198
				c0-2.869,21.684-5.197,48.432-5.197C219.021,286.318,240.705,288.646,240.705,291.515z"/>
			<g>
				<path style="fill:#A3A3A3;" d="M248.092,355.157c0.012,0.012,0.029,0.029,0.051,0.052
					C248.121,355.186,248.104,355.168,248.092,355.157z"/>
				<polygon style="fill:#A3A3A3;" points="143.861,291.451 143.844,291.451 143.861,291.451 				"/>
				<path style="fill:#A3A3A3;" d="M248.066,355.133c0,0,0.008,0.007,0.016,0.014C248.072,355.138,248.066,355.133,248.066,355.133z
					"/>
				<path style="fill:#A3A3A3;" d="M160.23,319.496c6.732,1.061,15.291,2.24,25.908,3.42c-0.244-0.442-0.494-0.882-0.734-1.326
					c-0.252-0.464-0.441-0.803-0.584-1.045c-0.057-0.148-0.119-0.31-0.186-0.484c-0.936-2.426-1.652-4.932-2.346-7.436
					c-0.521-1.887-0.912-3.806-1.309-5.721c-0.027-0.148-0.049-0.297-0.076-0.445c-7.863-0.876-16.154-2.022-24.748-3.516
					C156.852,308.587,158.316,314.121,160.23,319.496z"/>
				<path style="fill:#A3A3A3;" d="M249.203,357.432c-0.189-1.234-0.834-1.992-1.059-2.223c0.219,0.228,0.834,0.954,1.039,2.129
					C249.191,357.37,249.195,357.402,249.203,357.432z"/>
				<path style="fill:#A3A3A3;" d="M215.717,350.918c-0.086-0.036-0.174-0.072-0.256-0.105c-1.477-0.668-2.941-1.357-4.4-2.066
					c-2.395-1.164-4.668-2.61-6.871-4.126c0.293,0.172-2.166-1.651-2.725-2.133c-1.709-1.478-3.305-3.089-4.877-4.71
					c-1.18-1.216-2.283-2.505-3.385-3.791c-0.139-0.171-0.248-0.306-0.361-0.444c-0.424-0.586-0.852-1.166-1.262-1.761
					c-0.342-0.485-0.668-0.984-0.996-1.48c-9.346-0.885-18.775-2.002-27.445-3.413c2.605,6.145,5.365,11.806,8.912,17.176
					C184.605,346.706,199.563,349.286,215.717,350.918z"/>
				<path style="fill:#A3A3A3;" d="M155.725,294.924c-0.01,0.64-0.014,1.279,0,1.918c6.363,0.878,14.836,1.956,24.336,2.937
					c-0.098-1.081-0.209-2.163-0.301-3.24C170.289,296.266,161.971,295.694,155.725,294.924z"/>
				<path style="fill:#A3A3A3;" d="M178.932,352.902c5.502,5.911,12.813,10.167,20.467,12.963l44.078,0.082l1.668-0.899
					c2.277-2.043,3.383-3.801,3.838-5.248l-0.002,0.001C248.98,359.8,213.762,359.146,178.932,352.902z"/>
				<path style="opacity:0.5;fill:#FFFFFF;" d="M248.143,355.208c0,0,0,0.001,0.002,0.001
					C248.143,355.21,248.143,355.21,248.143,355.208z"/>
				<polygon style="opacity:0.5;fill:#FFFFFF;" points="240.705,291.63 240.678,291.63 240.678,291.63 				"/>
				<path style="opacity:0.5;fill:#FFFFFF;" d="M248.082,355.147c0.002,0.003,0.008,0.006,0.01,0.01
					C248.088,355.152,248.084,355.151,248.082,355.147z"/>
				<path style="fill:#A3A3A3;" d="M247.248,313.647c1.943-1.799,2.689-3.643,2.799-5.335c-1.078,0.095-29.678,2.543-69.143-1.854
					c0.027,0.148,0.049,0.297,0.076,0.445c0.397,1.915,0.787,3.834,1.309,5.721c0.693,2.504,1.41,5.01,2.346,7.436
					c0.066,0.175,0.129,0.336,0.186,0.484c0.143,0.242,0.332,0.581,0.584,1.045c0.24,0.444,0.49,0.884,0.734,1.326
					c15.162,1.687,34.521,3.372,58.752,4.704c0,0,0.014,0.006,0.018,0.008C235.418,321.107,247.248,313.647,247.248,313.647z"/>
				<path style="opacity:0.5;fill:#FFFFFF;" d="M247.248,313.647c1.943-1.799,2.689-3.643,2.799-5.335
					c-1.078,0.095-29.678,2.543-69.143-1.854c0.027,0.148,0.049,0.297,0.076,0.445c0.397,1.915,0.787,3.834,1.309,5.721
					c0.693,2.504,1.41,5.01,2.346,7.436c0.066,0.175,0.129,0.336,0.186,0.484c0.143,0.242,0.332,0.581,0.584,1.045
					c0.24,0.444,0.49,0.884,0.734,1.326c15.162,1.687,34.521,3.372,58.752,4.704c0,0,0.014,0.006,0.018,0.008
					C235.418,321.107,247.248,313.647,247.248,313.647z"/>
				<path style="fill:#A3A3A3;" d="M190.584,330.301c0.328,0.496,0.654,0.995,0.996,1.48c0.41,0.595,0.838,1.175,1.262,1.761
					c0.113,0.139,0.223,0.273,0.361,0.444c1.102,1.286,2.205,2.575,3.385,3.791c1.572,1.621,3.168,3.231,4.877,4.71
					c0.559,0.482,3.018,2.305,2.725,2.133c2.203,1.516,4.477,2.962,6.871,4.126c1.459,0.709,2.924,1.398,4.4,2.066
					c0.082,0.032,0.17,0.068,0.256,0.105c9.24,0.934,18.871,1.558,28.668,1.705c0,0,0.098,0.084,0.275,0.229
					c-7.861-6.615,3.434-11.699,3.434-11.699c2.098-2.506,2.057-5.309,1.414-7.593c0,0.005,0,0.009,0,0.014
					C249.508,333.573,220.506,333.134,190.584,330.301z"/>
				<path style="opacity:0.5;fill:#FFFFFF;" d="M190.584,330.301c0.328,0.496,0.654,0.995,0.996,1.48
					c0.41,0.595,0.838,1.175,1.262,1.761c0.113,0.139,0.223,0.273,0.361,0.444c1.102,1.286,2.205,2.575,3.385,3.791
					c1.572,1.621,3.168,3.231,4.877,4.71c0.559,0.482,3.018,2.305,2.725,2.133c2.203,1.516,4.477,2.962,6.871,4.126
					c1.459,0.709,2.924,1.398,4.4,2.066c0.082,0.032,0.17,0.068,0.256,0.105c9.24,0.934,18.871,1.558,28.668,1.705
					c0,0,0.098,0.084,0.275,0.229c-7.861-6.615,3.434-11.699,3.434-11.699c2.098-2.506,2.057-5.309,1.414-7.593
					c0,0.005,0,0.009,0,0.014C249.508,333.573,220.506,333.134,190.584,330.301z"/>
				<path style="fill:#A3A3A3;" d="M247.268,301.47c0,0,2.199,2.739,2.717,5.38C249.541,303.757,247.268,301.47,247.268,301.47z"/>
				<path style="opacity:0.5;fill:#FFFFFF;" d="M247.268,301.47c0,0,2.199,2.739,2.717,5.38
					C249.541,303.757,247.268,301.47,247.268,301.47z"/>
				<path style="fill:#A3A3A3;" d="M192.275,296.713c-4.33,0-8.523-0.062-12.516-0.175c0.092,1.077,0.203,2.16,0.301,3.24
					c21.297,2.197,47.752,3.895,67.207,1.692c-6.236-3.132-7.387-6.704-6.563-9.839h-0.027
					C240.104,294.449,218.66,296.713,192.275,296.713z"/>
				<path style="opacity:0.5;fill:#FFFFFF;" d="M192.275,296.713c-4.33,0-8.523-0.062-12.516-0.175
					c0.092,1.077,0.203,2.16,0.301,3.24c21.297,2.197,47.752,3.895,67.207,1.692c-6.236-3.132-7.387-6.704-6.563-9.839h-0.027
					C240.104,294.449,218.66,296.713,192.275,296.713z"/>
				<path style="fill:#A3A3A3;" d="M247.215,328.977c-0.256-0.13-0.486-0.26-0.725-0.391c0.359,0.262,0.746,0.571,1.115,0.937
					C247.371,329.175,247.215,328.977,247.215,328.977z"/>
				<path style="opacity:0.5;fill:#FFFFFF;" d="M247.215,328.977c-0.256-0.13-0.486-0.26-0.725-0.391
					c0.359,0.262,0.746,0.571,1.115,0.937C247.371,329.175,247.215,328.977,247.215,328.977z"/>
				<path style="fill:#A3A3A3;" d="M248.145,355.21c-0.002,0-0.002,0-0.002,0c-0.021-0.023-0.039-0.041-0.051-0.053
					c-0.002-0.004-0.008-0.007-0.01-0.01c-0.008-0.007-0.016-0.014-0.016-0.014s0.793,0.95,1.117,2.205
					C248.979,356.164,248.363,355.437,248.145,355.21z"/>
				<path style="opacity:0.5;fill:#FFFFFF;" d="M248.145,355.21c-0.002,0-0.002,0-0.002,0c-0.021-0.023-0.039-0.041-0.051-0.053
					c-0.002-0.004-0.008-0.007-0.01-0.01c-0.008-0.007-0.016-0.014-0.016-0.014s0.793,0.95,1.117,2.205
					C248.979,356.164,248.363,355.437,248.145,355.21z"/>
				<path style="fill:#A3A3A3;" d="M141.729,317.711c-0.039-0.058-0.078-0.115-0.121-0.175
					C141.65,317.593,141.688,317.653,141.729,317.711z"/>
				<path style="fill:#CCCCCC;" d="M141.729,317.711c-0.039-0.058-0.078-0.115-0.121-0.175
					C141.65,317.593,141.688,317.653,141.729,317.711z"/>
				<path style="fill:#A3A3A3;" d="M163.139,326.888c-7.395-1.206-14.236-2.623-19.988-4.293c0,0,0.078-0.315,0.059-0.866
					c0.029,2.291-1.457,4.772-6.019,7.044c0,0-1.963,2.448-2.545,5.579c0.045,0.015,14.848,4.964,37.406,9.712
					C168.504,338.694,165.744,333.034,163.139,326.888z"/>
				<path style="fill:#CCCCCC;" d="M163.139,326.888c-7.395-1.206-14.236-2.623-19.988-4.293c0,0,0.078-0.315,0.059-0.866
					c0.029,2.291-1.457,4.772-6.019,7.044c0,0-1.963,2.448-2.545,5.579c0.045,0.015,14.848,4.964,37.406,9.712
					C168.504,338.694,165.744,333.034,163.139,326.888z"/>
				<path style="fill:#A3A3A3;" d="M160.23,319.496c-1.914-5.375-3.379-10.908-4.074-16.553c-5.332-0.926-10.777-1.983-16.309-3.192
					l0.023-0.028c-0.758,0.522-1.621,1.037-2.629,1.539c0,0-6.326,6.304-0.023,12.179c0,0,1.273,0.813,2.648,2.129
					c-0.018-0.016-0.031-0.032-0.049-0.049C139.818,315.52,145.879,317.236,160.23,319.496z"/>
				<path style="fill:#CCCCCC;" d="M160.23,319.496c-1.914-5.375-3.379-10.908-4.074-16.553c-5.332-0.926-10.777-1.983-16.309-3.192
					l0.023-0.028c-0.758,0.522-1.621,1.037-2.629,1.539c0,0-6.326,6.304-0.023,12.179c0,0,1.273,0.813,2.648,2.129
					c-0.018-0.016-0.031-0.032-0.049-0.049C139.818,315.52,145.879,317.236,160.23,319.496z"/>
				<path style="fill:#A3A3A3;" d="M140.365,316.065c0.371,0.387,0.74,0.81,1.084,1.262
					C141.141,316.918,140.783,316.497,140.365,316.065z"/>
				<path style="fill:#CCCCCC;" d="M140.365,316.065c0.371,0.387,0.74,0.81,1.084,1.262
					C141.141,316.918,140.783,316.497,140.365,316.065z"/>
				<path style="fill:#A3A3A3;" d="M199.398,365.865c-7.654-2.796-14.965-7.052-20.467-12.963
					c-14.928-2.676-29.785-6.376-41.764-11.495c0,0-0.885-0.566-1.685-1.592c0.223,0.38,0.476,0.757,0.787,1.128
					c0,0,13.963,6.34-0.027,13.978c0,0-4.119,3.598,2.883,9.928l34.939,19.003l-33.27-18.095L199.398,365.865z"/>
				<path style="fill:#CCCCCC;" d="M199.398,365.865c-7.654-2.796-14.965-7.052-20.467-12.963
					c-14.928-2.676-29.785-6.376-41.764-11.495c0,0-0.885-0.566-1.685-1.592c0.223,0.38,0.476,0.757,0.787,1.128
					c0,0,13.963,6.34-0.027,13.978c0,0-4.119,3.598,2.883,9.928l34.939,19.003l-33.27-18.095L199.398,365.865z"/>
				<path style="fill:#A3A3A3;" d="M143.844,291.451c0.004,0.011,0.006,0.022,0.008,0.034c0.002-0.012,0.006-0.023,0.01-0.034
					H143.844z"/>
				<path style="fill:#CCCCCC;" d="M143.844,291.451c0.004,0.011,0.006,0.022,0.008,0.034c0.002-0.012,0.006-0.023,0.01-0.034
					H143.844z"/>
				<path style="fill:#A3A3A3;" d="M155.725,294.924c-6.85-0.845-11.201-1.929-11.805-3.122c0.219,1.057,0.213,2.159-0.149,3.272
					c0.012,0.002,4.563,0.75,11.953,1.768C155.711,296.203,155.715,295.564,155.725,294.924z"/>
				<path style="fill:#CCCCCC;" d="M155.725,294.924c-6.85-0.845-11.201-1.929-11.805-3.122c0.219,1.057,0.213,2.159-0.149,3.272
					c0.012,0.002,4.563,0.75,11.953,1.768C155.711,296.203,155.715,295.564,155.725,294.924z"/>
				<path style="fill:#FFFFFF;" d="M156.156,302.942c8.594,1.493,16.885,2.64,24.748,3.516c39.465,4.398,68.064,1.95,69.143,1.854
					c0.021-0.001,0.033-0.002,0.033-0.002c0.045-0.471,0.002-0.965-0.096-1.46c-0.518-2.642-2.717-5.38-2.717-5.38
					c-19.455,2.203-45.91,0.505-67.207-1.692c-9.5-0.98-17.973-2.059-24.336-2.937c-7.391-1.018-11.941-1.766-11.953-1.768h-0.002
					l-3.898,4.649l-0.023,0.028C145.379,300.959,150.824,302.016,156.156,302.942z"/>
				<path style="fill:#FFFFFF;" d="M186.139,322.915c-10.617-1.18-19.176-2.359-25.908-3.42c-14.351-2.26-20.412-3.976-20.412-3.976
					c0.018,0.017,0.031,0.033,0.049,0.049c0.178,0.167,0.338,0.331,0.498,0.496c0.418,0.432,0.775,0.853,1.084,1.262
					c0.051,0.07,0.109,0.142,0.158,0.209c0.043,0.06,0.082,0.117,0.121,0.175c1.178,1.714,1.451,3.156,1.48,4.018
					c0.02,0.551-0.059,0.866-0.059,0.866c5.752,1.67,12.594,3.087,19.988,4.293c8.67,1.411,18.1,2.528,27.445,3.413
					c29.922,2.833,58.924,3.272,58.924,3.272c0-0.005,0-0.009,0-0.014c0-1.696-0.896-3.051-1.902-4.036
					c-0.369-0.365-0.756-0.675-1.115-0.937c-0.828-0.603-1.512-0.927-1.582-0.959c-0.004-0.002-0.018-0.008-0.018-0.008
					C220.66,326.288,201.301,324.602,186.139,322.915z"/>
				<polygon style="fill:#B3B3B3;" points="140.795,365.756 174.064,383.851 181.391,383.865 205.404,383.909 210.137,383.919 
					243.477,365.947 243.477,365.947 199.398,365.865 				"/>
				<path style="fill:#FFFFFF;" d="M215.717,350.918c-16.154-1.632-31.111-4.212-43.666-6.854
					c-22.559-4.748-37.361-9.697-37.406-9.712h-0.002c-0.938,2.372-0.109,4.244,0.84,5.463c0.801,1.025,1.685,1.592,1.685,1.592
					c11.979,5.119,26.836,8.819,41.764,11.495c34.83,6.244,70.049,6.898,70.049,6.898l0.002-0.001
					c0.404-0.804,0.395-1.633,0.221-2.367c-0.008-0.03-0.012-0.063-0.02-0.094c-0.324-1.255-1.117-2.205-1.117-2.205
					c-1.707-0.964-2.899-1.873-3.406-2.282c-0.178-0.145-0.275-0.229-0.275-0.229C234.588,352.475,224.957,351.851,215.717,350.918z
					"/>
				<path style="fill:#121212;" d="M181.391,383.865l-7.326-0.014c-2.822,1.686,1.453,5.188,1.453,5.188l9.68,9.374
					c6.865,5.313,13.754,0.028,13.754,0.028l11.18-11.25c1.918-1.802,0.006-3.271,0.006-3.271l-4.732-0.011L181.391,383.865z"/>
			</g>
		</g>
	</g>
	<g>
		<g>
			<path style="fill:#87AF1D;" d="M236.381,84.881h-89.168c-4.176,0-7.559,3.385-7.559,7.558l14.359,69.423
				c0,4.173,3.381,7.556,7.555,7.556h61.211c4.174,0,7.559-3.383,7.559-7.556l13.598-69.423
				C243.936,88.266,240.553,84.881,236.381,84.881z M191.795,143.774c-9.182,0-16.625-7.443-16.625-16.624
				c0-9.184,7.443-16.624,16.625-16.624c9.182,0,16.627,7.441,16.627,16.624C208.422,136.331,200.977,143.774,191.795,143.774z"/>
			<path style="fill:#87AF1D;" d="M203.74,127.15c0,6.595-5.35,11.944-11.945,11.944c-6.598,0-11.943-5.349-11.943-11.944
				c0-6.599,5.346-11.945,11.943-11.945C198.391,115.206,203.74,120.552,203.74,127.15z"/>
			<path style="fill:#87AF1D;" d="M225.803,174.052c0,1.668-1.355,3.021-3.023,3.021h-62.344c-1.67,0-3.023-1.353-3.023-3.021l0,0
				c0-1.67,1.354-3.024,3.023-3.024h62.344C224.447,171.028,225.803,172.382,225.803,174.052L225.803,174.052z"/>
			<path style="fill:#87AF1D;" d="M222.211,181.986c0,1.67-1.354,3.023-3.021,3.023h-55.166c-1.668,0-3.021-1.353-3.021-3.023l0,0
				c0-1.669,1.353-3.023,3.021-3.023h55.166C220.857,178.963,222.211,180.316,222.211,181.986L222.211,181.986z"/>
			<polygon style="fill:#87AF1D;" points="203.74,195.27 179.852,195.27 174.416,187.525 208.799,187.525 			"/>
			<path style="fill:#87AF1D;" d="M196.613,292.78V192.626H186.6v100.74C189.947,293.579,193.566,294.064,196.613,292.78z"/>
			<g>
				<path style="fill:#87AF1D;" d="M175.928,82.867V31.229c0-3.761-3.049-6.813-6.813-6.813c-3.762,0-6.811,3.052-6.811,6.813
					v51.638H175.928z"/>
				<path style="fill:#87AF1D;" d="M221.289,82.867V31.229c0-3.761-3.051-6.813-6.813-6.813s-6.813,3.052-6.813,6.813v51.638
					H221.289z"/>
			</g>
		</g>
		<g>
			<path style="fill:#87AF1D;" d="M273.357,260.065c-28.561,28.56-76.719,26.712-76.719,26.712s-1.85-48.158,26.711-76.721
				c28.563-28.561,76.723-26.711,76.723-26.711S301.92,231.503,273.357,260.065z"/>
			<path style="fill:#87AF1D;" d="M273.357,260.065c-28.561,28.56-76.719,26.712-76.719,26.712s-1.85-48.158,26.711-76.721
				c28.563-28.561,76.723-26.711,76.723-26.711S301.92,231.503,273.357,260.065z"/>
			<path style="fill:#FFFFFF;" d="M287.248,193.379c-17.627,8.387-31.262,20.85-42.185,37c-6.166,9.112-12.166,26.225-4.477,36.275
				c7.769,10.157,25.592-5.092,31.207-10.704c22.545-22.545,24.199-58.537,24.248-67.5
				C296.037,189.088,291.41,191.4,287.248,193.379z"/>
			<path style="fill:#DADADA;" d="M222.166,284.286c-8.127-9.724-12.037-23.916-7.248-36.212
				c7.479-19.194,22.031-32.734,38.666-44.29c13.815-9.597,29.781-17.3,46.492-20.231c-0.002-0.124-0.004-0.207-0.004-0.207
				s-48.16-1.85-76.723,26.711c-28.561,28.563-26.711,76.721-26.711,76.721s11.061,0.416,25.715-2.282
				C222.291,284.424,222.229,284.357,222.166,284.286z"/>
		</g>
		<g>
			<path style="fill:#87AF1D;" d="M106.623,229.253c29.766,29.764,79.951,27.838,79.951,27.838s1.928-50.188-27.836-79.952
				c-29.766-29.765-79.953-27.836-79.953-27.836S76.859,199.488,106.623,229.253z"/>
			<path style="fill:#87AF1D;" d="M106.623,229.253c29.766,29.764,79.951,27.838,79.951,27.838s1.928-50.188-27.836-79.952
				c-29.766-29.765-79.953-27.836-79.953-27.836S76.859,199.488,106.623,229.253z"/>
			<path style="fill:#FFFFFF;" d="M92.148,159.757c18.371,8.742,32.578,21.73,43.963,38.56c6.426,9.497,12.678,27.329,4.666,37.804
				c-8.098,10.584-26.672-5.306-32.521-11.156c-23.496-23.494-25.219-61.002-25.271-70.344
				C82.99,155.287,87.813,157.696,92.148,159.757z"/>
			<path style="fill:#DADADA;" d="M159.971,254.493c8.471-10.133,12.545-24.923,7.555-37.736
				c-7.793-20.003-22.959-34.112-40.295-46.156c-14.395-10-31.035-18.029-48.451-21.083c0.004-0.131,0.006-0.216,0.006-0.216
				s50.187-1.929,79.953,27.836c29.764,29.764,27.836,79.952,27.836,79.952s-11.527,0.433-26.797-2.379
				C159.842,254.637,159.908,254.569,159.971,254.493z"/>
		</g>
	</g>
</g>
</svg>
