<?xml version="1.0" encoding="utf-8"?>
<!-- Generator: Adobe Illustrator 27.5.0, SVG Export Plug-In . SVG Version: 6.00 Build 0)  -->
<svg version="1.1" xmlns="http://www.w3.org/2000/svg" xmlns:xlink="http://www.w3.org/1999/xlink" x="0px" y="0px"
	 viewBox="0 0 500 500" style="enable-background:new 0 0 500 500;" xml:space="preserve">
<g id="BACKGROUND">
	<rect x="0.217" style="fill:#94D4D9;" width="500" height="500"/>
	
		<ellipse transform="matrix(0.7071 -0.7071 0.7071 0.7071 -102.6879 249.4562)" style="fill:#CCFFFF;" cx="249.776" cy="248.683" rx="167.224" ry="167.224"/>
</g>
<g id="OBJECTS">
	<g>
		<g>
			<path style="fill:#F6C4A5;" d="M147.175,325.211c-7.571-0.419-12.919-8.978-11.397-16.221c-3.635,0.197-6.422,1.113-6.847,2.679
				l-0.331,0.736c-3.373,14.672,20.215,24.208,26.499,10.971C152.56,324.539,149.766,325.104,147.175,325.211z"/>
			<path style="fill:#F4B58E;" d="M155.682,321.946c3.248-9.521-10.928-13.443-19.904-12.957
				c-1.523,7.243,3.826,15.802,11.397,16.221c2.591-0.107,5.385-0.672,7.924-1.835C155.313,322.925,155.51,322.451,155.682,321.946z
				"/>
		</g>
		<g>
			<path style="fill:none;" d="M273.433,299.616c0.101,0.104,0.202,0.207,0.302,0.31
				C273.634,299.823,273.534,299.72,273.433,299.616z"/>
			<path style="fill:none;" d="M262.144,288.864c0.132,0.107,0.266,0.217,0.401,0.329
				C262.411,289.081,262.277,288.97,262.144,288.864z"/>
			<path style="fill:none;" d="M278.818,305.118c0.042,0.041,0.083,0.08,0.122,0.118C278.9,305.198,278.859,305.159,278.818,305.118
				z"/>
			<path style="fill:none;" d="M278.05,304.359c-0.024-0.024-0.045-0.045-0.069-0.07
				C278.005,304.314,278.027,304.336,278.05,304.359z"/>
			<path style="fill:none;" d="M279.163,305.446c0.03,0.028,0.063,0.059,0.092,0.085
				C279.226,305.505,279.193,305.474,279.163,305.446z"/>
			<path style="fill:none;" d="M280.833,264.829c0.099,0.027,0.192,0.049,0.305,0.091
				C281.024,264.878,280.931,264.856,280.833,264.829z"/>
			<path style="fill:none;" d="M276.547,211.835c3.982,3.023,7.922,6.283,11.838,9.698c1.172,1.022,2.339,2.077,3.508,3.123
				c-5.077-4.991-10.46-9.789-16.317-13.768C275.903,211.2,276.226,211.516,276.547,211.835z"/>
			<path style="fill:none;" d="M257.818,286.257c0.091,0.013,0.187,0.034,0.287,0.062
				C258.005,286.291,257.909,286.27,257.818,286.257z"/>
			<path style="fill:none;" d="M261.438,288.307c0.126,0.097,0.254,0.196,0.383,0.299
				C261.692,288.503,261.565,288.404,261.438,288.307z"/>
			<path style="fill:none;" d="M280.213,264.75c0.107-0.02,0.241-0.013,0.395,0.015C280.453,264.736,280.32,264.73,280.213,264.75z"
				/>
			<path style="fill:none;" d="M276.737,303.021c0.057,0.058,0.114,0.118,0.17,0.175
				C276.852,303.138,276.794,303.08,276.737,303.021z"/>
			<path style="fill:none;" d="M270.924,349.491c0.32,0.319,0.646,0.632,0.962,0.955C271.57,350.123,271.244,349.81,270.924,349.491
				z"/>
			<path style="fill:none;" d="M276.148,302.414c0.039,0.04,0.077,0.079,0.115,0.119
				C276.224,302.493,276.186,302.454,276.148,302.414z"/>
			<path style="fill:none;" d="M274.136,300.339c0.109,0.112,0.216,0.222,0.323,0.332
				C274.352,300.561,274.245,300.452,274.136,300.339z"/>
			<path style="fill:none;" d="M272.67,298.834c0.107,0.11,0.214,0.219,0.32,0.327C272.884,299.053,272.777,298.944,272.67,298.834z
				"/>
			<path style="fill:none;" d="M268.099,346.743c-0.087-0.082-0.17-0.169-0.257-0.251c-0.011-0.007-0.023-0.013-0.034-0.02
				C267.904,346.563,268.003,346.652,268.099,346.743z"/>
			<path style="fill:none;" d="M265.491,291.784c0.151,0.139,0.302,0.279,0.453,0.421
				C265.792,292.063,265.641,291.923,265.491,291.784z"/>
			<path style="fill:none;" d="M278.423,304.731c0.045,0.044,0.086,0.085,0.129,0.127
				C278.509,304.817,278.467,304.776,278.423,304.731z"/>
			<path style="fill:none;" d="M257.377,286.25c0.099-0.019,0.211-0.018,0.33-0.009C257.588,286.232,257.476,286.231,257.377,286.25
				z"/>
			<path style="fill:none;" d="M277.369,303.669c0.033,0.034,0.068,0.07,0.1,0.103C277.437,303.738,277.402,303.702,277.369,303.669
				z"/>
			<path style="fill:none;" d="M270.741,296.877c0.183,0.185,0.365,0.368,0.547,0.552
				C271.106,297.245,270.924,297.061,270.741,296.877z"/>
			<path style="fill:none;" d="M271.771,297.919c0.159,0.161,0.317,0.322,0.474,0.482
				C272.088,298.241,271.93,298.08,271.771,297.919z"/>
			<path style="fill:none;" d="M316.083,292.335c0.036,0.031,0.076,0.065,0.109,0.093
				C316.158,292.4,316.119,292.366,316.083,292.335z"/>
			<path style="fill:none;" d="M259.36,286.883c0.119,0.068,0.242,0.142,0.367,0.22C259.602,287.024,259.479,286.951,259.36,286.883
				z"/>
			<path style="fill:none;" d="M268.238,294.396c0.156,0.152,0.312,0.304,0.468,0.457C268.55,294.7,268.394,294.548,268.238,294.396
				z"/>
			<path style="fill:none;" d="M262.868,289.46c0.16,0.134,0.323,0.274,0.486,0.414C263.191,289.734,263.028,289.595,262.868,289.46
				z"/>
			<path style="fill:none;" d="M315.656,291.971c0.033,0.028,0.064,0.055,0.096,0.082C315.72,292.026,315.69,292,315.656,291.971z"
				/>
			<path style="fill:none;" d="M263.719,290.19c0.203,0.177,0.408,0.358,0.616,0.543
				C264.128,290.548,263.923,290.368,263.719,290.19z"/>
			<path style="fill:none;" d="M267.121,293.316c0.255,0.244,0.51,0.49,0.766,0.738C267.631,293.806,267.376,293.56,267.121,293.316
				z"/>
			<path style="fill:none;" d="M266.302,292.54c0.159,0.149,0.318,0.301,0.478,0.453
				C266.621,292.841,266.461,292.689,266.302,292.54z"/>
			<path style="fill:none;" d="M259.93,287.229c0.181,0.117,0.367,0.241,0.559,0.376C260.297,287.47,260.111,287.347,259.93,287.229
				z"/>
			<path style="fill:none;" d="M260.704,287.761c0.143,0.103,0.287,0.207,0.436,0.319
				C260.992,287.968,260.848,287.863,260.704,287.761z"/>
			<path style="fill:none;" d="M286.485,268.164c-0.002-0.001-0.004-0.003-0.006-0.004c0.004,0.003,0.008,0.006,0.012,0.009
				C286.489,268.167,286.487,268.165,286.485,268.164z"/>
			<path style="fill:none;" d="M285.323,267.355c0.02,0.013,0.039,0.026,0.059,0.04
				C285.362,267.381,285.343,267.368,285.323,267.355z"/>
			<path style="fill:none;" d="M269.1,295.242c0.142,0.14,0.284,0.281,0.426,0.422C269.384,295.523,269.243,295.382,269.1,295.242z"
				/>
			<path style="fill:none;" d="M264.687,291.051c0.147,0.133,0.294,0.265,0.442,0.401
				C264.981,291.316,264.834,291.183,264.687,291.051z"/>
			<path style="fill:none;" d="M269.927,296.062c0.135,0.135,0.27,0.27,0.405,0.405
				C270.197,296.332,270.063,296.197,269.927,296.062z"/>
			<path style="fill:none;" d="M282.31,265.474c0.08,0.043,0.155,0.081,0.239,0.128C282.465,265.555,282.39,265.518,282.31,265.474z
				"/>
			<path style="fill:none;" d="M258.231,286.355c0.14,0.045,0.285,0.1,0.441,0.169C258.516,286.454,258.371,286.4,258.231,286.355z"
				/>
			<path style="fill:none;" d="M283.224,265.997c0.061,0.037,0.119,0.07,0.182,0.109
				C283.343,266.068,283.285,266.034,283.224,265.997z"/>
			<path style="fill:none;" d="M284.23,266.628c0.042,0.027,0.082,0.052,0.124,0.08C284.312,266.68,284.272,266.655,284.23,266.628z
				"/>
			<path style="fill:none;" d="M258.737,286.556c0.138,0.064,0.283,0.138,0.433,0.219
				C259.02,286.694,258.875,286.62,258.737,286.556z"/>
			<path style="fill:none;" d="M281.511,265.08c0.092,0.041,0.178,0.075,0.277,0.123
				C281.688,265.154,281.603,265.121,281.511,265.08z"/>
			<path style="fill:#99683F;" d="M256,362c-2-12-8-21-19-27c-2.322-1.393-2.707-5.592-3.451-10.289
				c-15.664-7.294-33.543-9.676-50.409-14.22c-20.109-5.418-41.224-16.175-48.114-35.828c-0.95-2.71-1.377-6.095-0.124-8.462
				c-0.968-0.276-1.788-0.326-2.353-0.044c-47.365,28.266-97.171,4.005-132.332-30.299v40.149
				c15.066,5.43,30.816,8.715,46.572,11.466c16.242,2.836,34.823,3.199,50.323,8.218c10.775,3.489,22.253,14.194,33.626,15.897
				c1.596,0.961,3.203,1.906,4.848,2.796c23.608,12.766,48.492,23.942,72.925,35.011c11.675,5.289,23.198,11.19,34.559,17.08
				c8.039,4.168,16.914,8.026,26.139,6.989c3.822-0.43,7.654-2.516,9.862-5.54c-0.023,0.024-0.047,0.051-0.07,0.075
				C271,372,258,369,256,362z M225.824,343.33c0.493-0.777,1.006-1.545,1.531-2.304C226.9,341.802,226.392,342.571,225.824,343.33z"
				/>
			<path style="fill:#99683F;" d="M136.248,264.593c-0.377-0.377-0.779-0.73-1.243-1.021c-5.138-3.222-11.33,1.554-16.256,5.092
				c-19.107,13.723-46.967,8.406-67.267,0.154c-11.487-4.669-22.21-11.121-32.13-18.527c-2.855-2.131-12.736-8.715-19.135-14.531
				v0.099c35.161,34.304,84.967,58.565,132.332,30.299c0.565-0.283,1.385-0.232,2.353,0.044
				C135.228,265.584,135.672,265.041,136.248,264.593z"/>
			<path style="fill:#99683F;" d="M227.354,341.026c-0.525,0.759-1.037,1.527-1.531,2.304
				C226.392,342.571,226.9,341.802,227.354,341.026z"/>
			<path style="fill:#99683F;" d="M260.494,287.608c0.068,0.048,0.141,0.102,0.21,0.152c0.143,0.103,0.287,0.207,0.436,0.319
				c0.098,0.073,0.198,0.151,0.298,0.228c0.126,0.097,0.254,0.196,0.383,0.299c0.107,0.084,0.214,0.17,0.323,0.258
				c0.132,0.107,0.266,0.217,0.401,0.329c0.107,0.089,0.214,0.176,0.323,0.268c0.16,0.134,0.323,0.274,0.486,0.414
				c0.121,0.104,0.242,0.208,0.365,0.316c0.203,0.177,0.408,0.358,0.616,0.543c0.116,0.104,0.235,0.211,0.352,0.317
				c0.147,0.132,0.294,0.265,0.442,0.401c0.12,0.11,0.24,0.22,0.361,0.332c0.151,0.139,0.302,0.279,0.453,0.421
				c0.119,0.111,0.238,0.222,0.358,0.335c0.159,0.149,0.318,0.301,0.478,0.453c0.114,0.108,0.227,0.215,0.341,0.324
				c0.255,0.244,0.51,0.49,0.766,0.738c0.117,0.114,0.234,0.228,0.351,0.342c0.156,0.152,0.312,0.304,0.468,0.457
				c0.132,0.129,0.263,0.259,0.394,0.388c0.142,0.141,0.284,0.281,0.426,0.422c0.134,0.133,0.267,0.265,0.401,0.398
				c0.135,0.135,0.27,0.27,0.405,0.405c0.137,0.137,0.273,0.273,0.409,0.41c0.184,0.185,0.365,0.368,0.547,0.552
				c0.162,0.164,0.323,0.327,0.484,0.49c0.159,0.161,0.317,0.322,0.474,0.482c0.143,0.146,0.284,0.29,0.425,0.434
				c0.107,0.11,0.214,0.219,0.32,0.327c0.149,0.153,0.296,0.304,0.443,0.454c0.102,0.104,0.202,0.207,0.302,0.31
				c0.135,0.139,0.269,0.277,0.402,0.413c0.109,0.112,0.215,0.222,0.323,0.332c0.597,0.615,1.165,1.202,1.689,1.742
				c0.039,0.04,0.077,0.079,0.115,0.119c0.163,0.168,0.32,0.33,0.474,0.488c0.057,0.059,0.114,0.117,0.17,0.175
				c0.16,0.164,0.313,0.321,0.462,0.473c0.033,0.034,0.068,0.069,0.1,0.103c0.179,0.182,0.35,0.356,0.511,0.519
				c0.024,0.024,0.046,0.046,0.069,0.07c0.13,0.131,0.255,0.255,0.372,0.372c0.045,0.044,0.086,0.085,0.129,0.127
				c0.093,0.092,0.182,0.178,0.266,0.259c0.042,0.041,0.083,0.08,0.122,0.118c0.08,0.076,0.153,0.145,0.223,0.21
				c0.03,0.028,0.063,0.059,0.092,0.085c0.093,0.084,0.178,0.159,0.249,0.218c5.27,4.344,10.965,8.362,16.416,12.535
				c6.69,5.122,12.754,10.962,18.904,16.689c2.374,2.211,4.847,4.259,7.553,6.023c6.598,0.63,12.812-1.947,16.953-6.179
				C308.1,337.728,288.202,299.415,260.494,287.608z"/>
			<path style="fill:#99683F;" d="M286.485,268.164c0.002,0.001,0.004,0.003,0.006,0.004c9.173,6.507,25.093,20.316,29.166,23.803
				c0.033,0.028,0.064,0.055,0.096,0.082c0.124,0.106,0.232,0.198,0.331,0.282c0.037,0.031,0.076,0.064,0.109,0.093
				c0.114,0.097,0.213,0.18,0.283,0.238c5.261,4.354,10.948,8.384,16.39,12.569c2.585,1.988,5.075,4.084,7.513,6.238
				c5.45,1.178,10.666-1.639,14.235-5.75C328.402,308.271,311.184,277.53,286.485,268.164z"/>
			<path style="fill:#7E553D;" d="M272.476,349.075c-1.551-0.807-3.095-1.671-4.635-2.583c0.087,0.082,0.17,0.168,0.257,0.251
				c0.956,0.901,1.895,1.82,2.825,2.748c0.32,0.319,0.646,0.632,0.962,0.955c1.199,1.226,2.379,2.473,3.52,3.757
				c1.698,1.909,3.446,3.732,5.179,5.584c-0.064-0.217-0.135-0.436-0.216-0.656c1.12-0.165,2.146-0.054,3.132,0.202
				c-2.255-1.686-4.346-3.56-6.35-5.566C275.592,352.206,274.037,350.637,272.476,349.075z"/>
			<path style="fill:#7E553D;" d="M271.886,350.446c1.2,1.226,2.379,2.473,3.52,3.757c1.698,1.91,3.446,3.733,5.18,5.585
				c-1.734-1.852-3.482-3.675-5.179-5.584C274.264,352.919,273.085,351.672,271.886,350.446z"/>
			<path style="fill:#7E553D;" d="M268.099,346.743c0.957,0.9,1.895,1.82,2.825,2.748
				C269.994,348.562,269.055,347.643,268.099,346.743z"/>
			<path style="fill:#7E553D;" d="M247.656,329.519c0.336,0.272,0.673,0.544,1.009,0.816c4.994,4.023,10.029,8.035,14.863,12.265
				c0.141,0.123,0.28,0.246,0.42,0.37c1.099,0.967,2.183,1.948,3.256,2.943c0.211,0.195,0.427,0.383,0.637,0.579
				c1.54,0.911,3.084,1.776,4.635,2.583c-4.382-4.386-8.819-8.716-13.612-12.669c-5.296-4.368-10.842-8.59-15.951-13.121
				c-0.564-0.5-1.354-1.288-2.272-2.186c-2.137-1.327-4.299-2.584-6.473-3.811C238.96,321.25,243.435,326.093,247.656,329.519z"/>
			<path style="fill:#7E553D;" d="M267.205,345.913c-1.073-0.994-2.157-1.976-3.256-2.943
				C265.048,343.936,266.132,344.92,267.205,345.913z"/>
			<path style="fill:#7E553D;" d="M263.528,342.6c-4.834-4.23-9.869-8.242-14.863-12.265
				C253.654,334.37,258.695,338.377,263.528,342.6z"/>
			<path style="fill:#7E553D;" d="M231.252,315.654c2.323,3.75,8.341,7.191,11.449,9.793c1.636,1.369,3.292,2.723,4.955,4.072
				c-4.221-3.426-8.696-8.269-13.488-12.232C233.198,316.739,232.23,316.183,231.252,315.654z"/>
			<path style="fill:#7E553D;" d="M240.641,321.098c-2.946-2.881-7.247-6.927-9.952-6.507c0.009,0.022,0.022,0.045,0.032,0.067
				c1.168,0.805,2.315,1.693,3.447,2.629C236.342,318.514,238.504,319.772,240.641,321.098z"/>
			<path style="fill:#7E553D;" d="M234.168,317.287c-1.131-0.936-2.278-1.824-3.447-2.629c0.144,0.334,0.326,0.666,0.531,0.996
				C232.23,316.183,233.198,316.739,234.168,317.287z"/>
			<path style="fill:#7E553D;" d="M295.919,318.284c-5.451-4.174-11.145-8.192-16.416-12.535c-0.071-0.058-0.156-0.133-0.249-0.218
				c-0.029-0.026-0.061-0.057-0.092-0.085c-0.07-0.064-0.143-0.133-0.223-0.21c-0.039-0.038-0.081-0.077-0.122-0.118
				c-0.084-0.081-0.173-0.168-0.266-0.259c-0.043-0.042-0.085-0.083-0.129-0.127c-0.117-0.117-0.242-0.241-0.372-0.372
				c-0.024-0.024-0.045-0.045-0.069-0.07c-0.161-0.163-0.332-0.336-0.511-0.519c-0.032-0.033-0.068-0.069-0.1-0.103
				c-0.149-0.152-0.302-0.309-0.462-0.473c-0.056-0.057-0.113-0.116-0.17-0.175c-0.154-0.158-0.312-0.321-0.474-0.488
				c-0.038-0.04-0.077-0.079-0.115-0.119c-0.525-0.541-1.091-1.126-1.689-1.742c-0.107-0.11-0.214-0.22-0.323-0.332
				c-0.132-0.136-0.267-0.275-0.402-0.413c-0.1-0.103-0.201-0.206-0.302-0.31c-0.146-0.15-0.294-0.302-0.443-0.454
				c-0.106-0.108-0.213-0.218-0.32-0.327c-0.141-0.144-0.282-0.288-0.425-0.434c-0.157-0.16-0.315-0.321-0.474-0.482
				c-0.16-0.163-0.321-0.326-0.484-0.49c-0.181-0.184-0.363-0.367-0.547-0.552c-0.136-0.136-0.272-0.273-0.409-0.41
				c-0.135-0.135-0.269-0.27-0.405-0.405c-0.133-0.133-0.267-0.266-0.401-0.398c-0.142-0.141-0.284-0.281-0.426-0.422
				c-0.131-0.13-0.263-0.259-0.394-0.388c-0.156-0.153-0.312-0.305-0.468-0.457c-0.117-0.114-0.234-0.229-0.351-0.342
				c-0.256-0.248-0.511-0.494-0.766-0.738c-0.114-0.109-0.227-0.216-0.341-0.324c-0.16-0.152-0.319-0.303-0.478-0.453
				c-0.12-0.113-0.239-0.224-0.358-0.335c-0.152-0.142-0.303-0.282-0.453-0.421c-0.121-0.112-0.241-0.223-0.361-0.332
				c-0.148-0.136-0.295-0.268-0.442-0.401c-0.117-0.106-0.236-0.213-0.352-0.317c-0.207-0.185-0.412-0.366-0.616-0.543
				c-0.123-0.107-0.244-0.212-0.365-0.316c-0.163-0.14-0.326-0.28-0.486-0.414c-0.109-0.091-0.215-0.179-0.323-0.268
				c-0.135-0.112-0.269-0.222-0.401-0.329c-0.109-0.088-0.216-0.174-0.323-0.258c-0.13-0.103-0.257-0.201-0.383-0.299
				c-0.1-0.077-0.2-0.154-0.298-0.228c-0.149-0.111-0.293-0.216-0.436-0.319c-0.07-0.05-0.142-0.104-0.211-0.152
				c-0.002-0.001-0.003-0.002-0.004-0.003c-0.193-0.135-0.378-0.259-0.559-0.376c-0.069-0.045-0.135-0.085-0.203-0.127
				c-0.125-0.078-0.248-0.151-0.367-0.22c-0.064-0.037-0.128-0.073-0.19-0.107c-0.15-0.082-0.295-0.155-0.433-0.219
				c-0.021-0.01-0.044-0.023-0.065-0.032c-0.156-0.07-0.301-0.124-0.441-0.169c-0.043-0.014-0.084-0.024-0.126-0.036
				c-0.101-0.028-0.197-0.049-0.287-0.062c-0.037-0.005-0.075-0.012-0.111-0.015c-0.118-0.01-0.23-0.01-0.33,0.009
				c1.865,4.095,18.492,18.945,21.993,21.667c11.425,8.883,23.682,17.051,33.724,27.553c2.069,2.164,4.206,4.197,6.305,6.312
				c-0.097-0.456-0.21-0.913-0.345-1.371c1.113,0.29,2.222,0.48,3.322,0.585c-2.706-1.764-5.178-3.812-7.553-6.023
				C308.673,329.245,302.609,323.406,295.919,318.284z"/>
			<path style="fill:#7E553D;" d="M261.14,288.079c0.098,0.073,0.198,0.151,0.298,0.228
				C261.338,288.23,261.238,288.152,261.14,288.079z"/>
			<path style="fill:#7E553D;" d="M261.822,288.606c0.107,0.084,0.214,0.17,0.323,0.258
				C262.036,288.776,261.928,288.69,261.822,288.606z"/>
			<path style="fill:#7E553D;" d="M264.335,290.733c0.116,0.104,0.235,0.211,0.352,0.317
				C264.57,290.944,264.452,290.837,264.335,290.733z"/>
			<path style="fill:#7E553D;" d="M276.907,303.196c0.16,0.164,0.313,0.321,0.462,0.473
				C277.22,303.517,277.067,303.36,276.907,303.196z"/>
			<path style="fill:#7E553D;" d="M273.735,299.926c0.135,0.139,0.27,0.277,0.402,0.413
				C274.004,300.203,273.87,300.065,273.735,299.926z"/>
			<path style="fill:#7E553D;" d="M271.287,297.429c0.162,0.164,0.323,0.327,0.484,0.49
				C271.611,297.756,271.45,297.593,271.287,297.429z"/>
			<path style="fill:#7E553D;" d="M274.459,300.672c0.598,0.616,1.164,1.201,1.689,1.742
				C275.624,301.874,275.056,301.287,274.459,300.672z"/>
			<path style="fill:#7E553D;" d="M272.245,298.401c0.143,0.146,0.284,0.29,0.425,0.434
				C272.529,298.69,272.388,298.546,272.245,298.401z"/>
			<path style="fill:#7E553D;" d="M272.99,299.162c0.149,0.152,0.297,0.304,0.443,0.454
				C273.286,299.466,273.139,299.315,272.99,299.162z"/>
			<path style="fill:#7E553D;" d="M276.263,302.533c0.162,0.167,0.321,0.33,0.474,0.488
				C276.583,302.862,276.426,302.701,276.263,302.533z"/>
			<path style="fill:#7E553D;" d="M278.423,304.731c-0.118-0.117-0.242-0.241-0.372-0.372
				C278.18,304.49,278.305,304.615,278.423,304.731z"/>
			<path style="fill:#7E553D;" d="M279.255,305.531c0.093,0.084,0.178,0.159,0.249,0.218
				C279.433,305.69,279.348,305.615,279.255,305.531z"/>
			<path style="fill:#7E553D;" d="M260.704,287.761c-0.07-0.05-0.142-0.104-0.21-0.152h0
				C260.562,287.656,260.635,287.711,260.704,287.761z"/>
			<path style="fill:#7E553D;" d="M277.47,303.771c0.179,0.182,0.35,0.356,0.511,0.519
				C277.819,304.127,277.649,303.954,277.47,303.771z"/>
			<path style="fill:#7E553D;" d="M278.552,304.859c0.093,0.092,0.182,0.179,0.266,0.259
				C278.734,305.037,278.645,304.951,278.552,304.859z"/>
			<path style="fill:#7E553D;" d="M278.94,305.236c0.08,0.076,0.153,0.145,0.223,0.21
				C279.093,305.381,279.02,305.312,278.94,305.236z"/>
			<path style="fill:#7E553D;" d="M268.706,294.853c0.131,0.129,0.263,0.259,0.394,0.388
				C268.969,295.112,268.838,294.983,268.706,294.853z"/>
			<path style="fill:#7E553D;" d="M262.546,289.192c0.107,0.089,0.214,0.176,0.323,0.268
				C262.759,289.369,262.653,289.281,262.546,289.192z"/>
			<path style="fill:#7E553D;" d="M265.129,291.452c0.12,0.109,0.241,0.221,0.361,0.332
				C265.37,291.672,265.249,291.561,265.129,291.452z"/>
			<path style="fill:#7E553D;" d="M265.944,292.205c0.119,0.111,0.238,0.222,0.358,0.335
				C266.183,292.427,266.063,292.316,265.944,292.205z"/>
			<path style="fill:#7E553D;" d="M267.887,294.054c0.117,0.113,0.234,0.228,0.351,0.342
				C268.121,294.282,268.004,294.168,267.887,294.054z"/>
			<path style="fill:#7E553D;" d="M269.526,295.664c0.134,0.133,0.267,0.265,0.401,0.398
				C269.794,295.929,269.66,295.796,269.526,295.664z"/>
			<path style="fill:#7E553D;" d="M270.332,296.467c0.137,0.137,0.273,0.274,0.409,0.41
				C270.605,296.74,270.468,296.604,270.332,296.467z"/>
			<path style="fill:#7E553D;" d="M263.354,289.875c0.121,0.104,0.242,0.208,0.365,0.316
				C263.596,290.083,263.475,289.979,263.354,289.875z"/>
			<path style="fill:#7E553D;" d="M266.78,292.992c0.114,0.108,0.227,0.215,0.341,0.324
				C267.007,293.207,266.894,293.1,266.78,292.992z"/>
			<polygon style="fill:#7E553D;" points="260.494,287.608 260.489,287.605 260.494,287.608 			"/>
			<path style="fill:#7E553D;" d="M257.707,286.241c0.036,0.003,0.074,0.01,0.111,0.015
				C257.781,286.251,257.742,286.245,257.707,286.241z"/>
			<path style="fill:#7E553D;" d="M258.672,286.524c0.021,0.009,0.044,0.022,0.065,0.032
				C258.716,286.546,258.693,286.533,258.672,286.524z"/>
			<path style="fill:#7E553D;" d="M259.727,287.102c0.067,0.042,0.134,0.083,0.203,0.127
				C259.861,287.185,259.794,287.144,259.727,287.102z"/>
			<path style="fill:#7E553D;" d="M258.105,286.319c0.042,0.012,0.082,0.022,0.126,0.036
				C258.188,286.341,258.147,286.331,258.105,286.319z"/>
			<path style="fill:#7E553D;" d="M259.17,286.775c0.062,0.034,0.126,0.071,0.19,0.107
				C259.296,286.846,259.232,286.809,259.17,286.775z"/>
			<path style="fill:#7E553D;" d="M316.475,292.666c-0.07-0.058-0.169-0.142-0.283-0.238c-0.033-0.028-0.073-0.062-0.109-0.093
				c-0.098-0.083-0.208-0.177-0.331-0.282c-0.032-0.027-0.062-0.053-0.096-0.082c-4.066-3.481-19.99-17.295-29.166-23.803
				c-0.004-0.003-0.008-0.006-0.012-0.009c-0.377-0.268-0.743-0.522-1.097-0.764c-0.02-0.014-0.039-0.026-0.059-0.04
				c-0.335-0.229-0.658-0.445-0.969-0.648c-0.042-0.027-0.082-0.053-0.124-0.08c-0.286-0.185-0.562-0.361-0.825-0.522
				c-0.063-0.038-0.121-0.072-0.182-0.109c-0.234-0.141-0.462-0.276-0.675-0.395c-0.083-0.047-0.159-0.085-0.239-0.128
				c-0.18-0.097-0.359-0.193-0.522-0.272c-0.099-0.048-0.185-0.082-0.277-0.123c-0.128-0.057-0.26-0.118-0.373-0.16
				c-0.113-0.042-0.206-0.064-0.305-0.091c-0.074-0.021-0.159-0.052-0.224-0.064c-0.155-0.028-0.289-0.035-0.395-0.015
				c1.857,4.099,32.629,27.355,36.125,30.084c8.647,6.751,17.771,13.095,26.046,20.352c-0.705-1.304-1.586-2.6-2.696-3.871
				c0.231,0.064,0.461,0.107,0.691,0.157c-2.439-2.154-4.928-4.251-7.513-6.238C327.422,301.05,321.736,297.02,316.475,292.666z"/>
			<path style="fill:#7E553D;" d="M281.788,265.203c0.162,0.079,0.341,0.174,0.522,0.272
				C282.13,265.378,281.95,265.281,281.788,265.203z"/>
			<path style="fill:#7E553D;" d="M283.406,266.106c0.263,0.161,0.539,0.336,0.825,0.522
				C283.945,266.443,283.668,266.267,283.406,266.106z"/>
			<path style="fill:#7E553D;" d="M284.354,266.707c0.311,0.203,0.634,0.419,0.969,0.648
				C284.988,267.127,284.665,266.91,284.354,266.707z"/>
			<path style="fill:#7E553D;" d="M282.548,265.602c0.213,0.119,0.441,0.254,0.675,0.395
				C282.99,265.856,282.761,265.721,282.548,265.602z"/>
			<path style="fill:#7E553D;" d="M285.382,267.395c0.354,0.242,0.719,0.497,1.097,0.764
				C286.101,267.892,285.735,267.637,285.382,267.395z"/>
			<path style="fill:#7E553D;" d="M280.608,264.765c0.066,0.012,0.15,0.043,0.224,0.064
				C280.758,264.808,280.674,264.777,280.608,264.765z"/>
			<path style="fill:#7E553D;" d="M281.137,264.92c0.114,0.042,0.246,0.103,0.373,0.16
				C281.383,265.024,281.251,264.962,281.137,264.92z"/>
			<path style="fill:#7E553D;" d="M315.752,292.053c0.123,0.105,0.233,0.199,0.331,0.282
				C315.984,292.251,315.876,292.159,315.752,292.053z"/>
			<path style="fill:#7E553D;" d="M286.491,268.168c9.176,6.509,25.099,20.323,29.166,23.803
				C311.583,288.484,295.664,274.675,286.491,268.168z"/>
			<path style="fill:#7E553D;" d="M316.192,292.428c0.114,0.096,0.213,0.18,0.283,0.238
				C316.405,292.608,316.306,292.525,316.192,292.428z"/>
			<path style="fill:#99683F;" d="M255.552,201.995c0.069,0.017,0.185,0.047,0.326,0.083c0.033,0.009,0.066,0.016,0.098,0.025
				c1.461,0.375,5.736,1.512,8.543,2.663c-1.705-0.725-3.449-1.368-5.237-1.914C258.001,202.459,256.761,202.185,255.552,201.995z"
				/>
			<path style="fill:#99683F;" d="M220.128,221.306c-8.205,7.058-17.405,15.226-27.702,18.526c-0.192,0.388-0.367,0.782-0.55,1.174
				c16.448,1.483,32.598-8.547,44.397-23.144l-1.543-9.441C229.717,212.232,225.053,217.069,220.128,221.306z"/>
			<path style="fill:#99683F;" d="M234.731,208.42l1.543,9.441c1.141-1.411,2.245-2.86,3.3-4.35
				c3.369-5.294,8.437-8.646,13.734-11.77c-0.008-0.001-0.016-0.002-0.024-0.004C246.14,201.297,240.225,204.242,234.731,208.42z"/>
			<path style="fill:#99683F;" d="M253.307,201.741c0.001-0.001,0.001-0.001,0.002-0.001c-0.009-0.001-0.017-0.002-0.026-0.002
				C253.291,201.738,253.299,201.739,253.307,201.741z"/>
			<path style="fill:#99683F;" d="M276.547,211.835c-0.321-0.319-0.644-0.635-0.971-0.947c-0.886-0.602-1.784-1.183-2.693-1.745
				C274.108,210.019,275.33,210.912,276.547,211.835z"/>
			<path style="fill:#99683F;" d="M185.112,234.722c-3.852-0.664-7.721-2.191-11.483-1.189c-0.414,0.11-0.82,0.263-1.216,0.441
				C176.589,235.017,180.898,235.253,185.112,234.722z"/>
			<path style="fill:#99683F;" d="M189.283,240.671c0.865,0.143,1.73,0.257,2.594,0.334c0.182-0.391,0.357-0.786,0.55-1.174
				C191.389,240.163,190.341,240.443,189.283,240.671z"/>
			<path style="fill:#99683F;" d="M185.479,241.238c-3.12,0.252-6.334-0.01-9.644-0.939c-0.266-0.075-0.499-0.159-0.751-0.238
				c-2.719-0.852-4.628-1.952-5.901-3.232c-0.089,0.159-0.181,0.317-0.256,0.485c-0.579,1.308-0.668,2.828-0.341,4.228
				c0.718,3.075,3.339,5.367,6.211,6.358c1.236,0.426,2.517,0.639,3.814,0.728c1.1-1.287,2.112-2.469,3.019-3.472
				C182.926,243.722,184.201,242.428,185.479,241.238z"/>
			<path style="fill:#99683F;" d="M253.572,201.781c-0.088-0.015-0.177-0.026-0.265-0.04c-5.297,3.125-10.365,6.477-13.734,11.77
				c-1.055,1.49-2.16,2.939-3.3,4.35l0.091,0.557c0.262-0.269,0.525-0.536,0.789-0.8c0.834-1.099,1.647-2.212,2.42-3.353
				C242.998,208.632,248.179,205.098,253.572,201.781z"/>
			<path style="fill:#99683F;" d="M191.876,241.005c-0.163,0.35-0.335,0.697-0.49,1.05c-0.828,1.896-1.469,3.746-2.036,5.575
				c11.762-2.222,22.995-7.444,32.63-14.812c5.105-3.904,9.565-9.465,14.383-14.401l-0.091-0.557
				C224.475,232.458,208.325,242.488,191.876,241.005z"/>
			<path style="fill:#99683F;" d="M236.364,218.418l0.033,0.199c0.258-0.329,0.504-0.667,0.757-0.999
				C236.889,217.882,236.626,218.149,236.364,218.418z"/>
			<path style="fill:#99683F;" d="M259.868,207.122c-0.405-0.195-0.806-0.397-1.213-0.589c0.408,0.192,0.81,0.394,1.215,0.59
				C259.869,207.122,259.869,207.122,259.868,207.122z"/>
			<path style="fill:#99683F;" d="M255.977,202.103c-0.033-0.009-0.066-0.017-0.098-0.025
				C255.91,202.086,255.942,202.094,255.977,202.103z"/>
			<path style="fill:#99683F;" d="M255.465,201.981c-0.73-0.112-1.45-0.198-2.156-0.242c-0.001,0.001-0.001,0.001-0.002,0.001
				c0.088,0.014,0.177,0.025,0.265,0.04c-5.393,3.317-10.574,6.85-13.999,12.483c-0.772,1.141-1.586,2.255-2.42,3.353
				c5.083-5.083,10.618-9.344,17.755-10.171c1.494-0.173,2.963-0.142,4.416,0.022c-0.222-0.311-0.449-0.625-0.67-0.936
				C257.575,205.01,256.507,203.491,255.465,201.981z"/>
			<path style="fill:#99683F;" d="M191.876,241.005c-0.864-0.078-1.729-0.192-2.594-0.334c-1.252,0.269-2.52,0.464-3.804,0.567
				c-1.277,1.19-2.553,2.484-3.849,3.918c-0.907,1.004-1.919,2.186-3.019,3.472c1.716,0.117,3.461,0.01,5.175-0.171
				c1.866-0.197,3.721-0.478,5.565-0.827c0.567-1.829,1.208-3.679,2.036-5.575C191.541,241.701,191.713,241.355,191.876,241.005z"/>
			<path style="fill:#F4B58E;" d="M195.619,234.013c6.579-1.911,12.77-6.221,18.358-10.567c6.992-5.437,13.791-11.135,20.424-17.045
				l-0.394-2.409c3.101,0.824,5.544-2.57,8.155-4.505c5.014-3.715,11.979-2.125,17.582,0.514
				c5.783,2.724,11.138,6.425,15.831,10.888c5.857,3.979,11.24,8.777,16.317,13.768c0.642,0.575,1.286,1.135,1.927,1.716l0,0
				C282.467,213.087,270.113,200.592,254,194c-25-9-35,20-51,33c-1.698,1.415-3.523,2.635-5.43,3.684
				c-0.548,0.937-1.1,1.873-1.648,2.808C195.819,233.665,195.72,233.839,195.619,234.013z"/>
			<path style="fill:#F4B58E;" d="M172.413,233.974c-1.802-0.45-3.582-1.033-5.313-1.787c0.047,0.889,0.247,1.742,0.615,2.55
				c0.697,0.384,1.444,0.726,2.227,1.027C170.622,234.997,171.478,234.394,172.413,233.974z"/>
			<path style="fill:#F4B58E;" d="M185.92,234.848c3.01,0.411,5.963,0.135,8.846-0.606c0.395-0.234,0.782-0.481,1.155-0.75
				c0.549-0.935,1.1-1.871,1.648-2.808c-3.874,2.13-8.11,3.491-12.457,4.039C185.382,234.769,185.651,234.811,185.92,234.848z"/>
			<path style="fill:#F4B58E;" d="M195.921,233.492c-0.372,0.27-0.759,0.517-1.155,0.75c0.285-0.073,0.569-0.147,0.852-0.229
				C195.72,233.839,195.819,233.665,195.921,233.492z"/>
			<path style="fill:#F4B58E;" d="M167.715,234.737c0.336,0.738,0.819,1.438,1.468,2.091c0.215-0.384,0.47-0.738,0.759-1.064
				C169.158,235.463,168.411,235.121,167.715,234.737z"/>
			<path style="fill:#F4B58E;" d="M220.128,221.306c4.925-4.236,9.589-9.073,14.602-12.886l-0.33-2.018
				c-6.633,5.91-13.431,11.608-20.424,17.045c-5.588,4.345-11.779,8.656-18.358,10.567c-1.122,1.92-2.217,3.847-3.193,5.818
				C202.724,236.531,211.923,228.364,220.128,221.306z"/>
			<path style="fill:#F4B58E;" d="M253.283,201.737c0.008,0.001,0.017,0.002,0.026,0.002c0.088-0.052,0.175-0.105,0.263-0.157
				c0.636,0.105,1.263,0.242,1.89,0.395c-0.002-0.002-0.003-0.005-0.005-0.007c0,0,0.037,0.009,0.095,0.024
				c1.209,0.19,2.449,0.465,3.731,0.857c1.788,0.546,3.532,1.189,5.237,1.914c0.272,0.111,0.533,0.223,0.773,0.333
				c3.328,1.537,3.55,1.182,6.707,3.401c0.295,0.208,0.588,0.433,0.882,0.643c0.909,0.562,1.807,1.143,2.693,1.745
				c-4.693-4.463-10.048-8.164-15.831-10.888c-5.603-2.639-12.568-4.229-17.582-0.514c-2.611,1.935-5.054,5.33-8.155,4.505
				l0.394,2.409c0.009-0.008,0.018-0.016,0.028-0.024C239.657,201.718,246.419,200.613,253.283,201.737z"/>
			<path style="fill:#F4B58E;" d="M253.283,201.737c-6.865-1.124-13.627-0.019-18.855,4.64c-0.009,0.008-0.018,0.016-0.028,0.024
				l0.33,2.018C240.225,204.242,246.14,201.297,253.283,201.737z"/>
			<path style="fill:#F4B58E;" d="M169.942,235.764c2.066,0.795,4.364,1.322,6.564,1.636c5.684,0,12.944-0.014,18.261-3.158
				c-2.883,0.741-5.836,1.018-8.846,0.606c-0.269-0.037-0.539-0.079-0.808-0.126c-4.215,0.531-8.524,0.295-12.699-0.748
				C171.478,234.394,170.622,234.997,169.942,235.764z"/>
			<path style="fill:#F4B58E;" d="M175.835,240.298c3.311,0.929,6.524,1.191,9.644,0.939c0.398-0.371,0.797-0.733,1.196-1.085
				c0.869,0.21,1.739,0.374,2.608,0.518c1.059-0.227,2.107-0.507,3.143-0.839c0.976-1.971,2.071-3.898,3.193-5.818
				c-0.283,0.082-0.568,0.156-0.852,0.229c-5.318,3.144-12.577,3.158-18.261,3.158c-2.2-0.314-4.497-0.841-6.564-1.636
				c-0.289,0.326-0.544,0.68-0.759,1.064c1.273,1.28,3.182,2.38,5.901,3.232C175.335,240.139,175.569,240.223,175.835,240.298z"/>
			<path style="fill:#F4B58E;" d="M253.572,201.582c-0.088,0.052-0.175,0.105-0.263,0.157c0.705,0.044,1.426,0.13,2.156,0.242
				c-0.001-0.001-0.002-0.003-0.003-0.004C254.835,201.824,254.208,201.687,253.572,201.582z"/>
			<path style="fill:#F4B58E;" d="M185.479,241.238c1.284-0.103,2.551-0.298,3.804-0.567c-0.869-0.143-1.739-0.307-2.608-0.518
				C186.275,240.504,185.877,240.867,185.479,241.238z"/>
			<path style="fill:#F4B58E;" d="M357.143,283.504c1.333-0.42,2.792-0.909,4.444-1.489c-2.604-0.414-1.177-2.211-3.587-3.014
				c-12.045-6.883-18.157-19.686-13.265-32.043c-3.463,4.538-7.042,8.108-7.735,15.043c-0.174,0.833-0.304,1.654-0.395,2.465
				c1.438,1.088,2.922,2.184,4.414,3.297C347.323,272.461,353.724,277.465,357.143,283.504z"/>
			<path style="fill:#99683F;" d="M280.58,216.229c-0.264-0.124-0.528-0.255-0.791-0.383c2.971,1.737,5.844,3.621,8.596,5.687
				c-3.917-3.415-7.857-6.674-11.838-9.698C277.955,213.234,279.309,214.693,280.58,216.229z"/>
			<path style="fill:#99683F;" d="M266.663,209.506c1.155,0.45,2.294,0.924,3.421,1.415c-1.164-0.555-2.333-1.078-3.51-1.542
				C266.603,209.421,266.633,209.463,266.663,209.506z"/>
			<path style="fill:#99683F;" d="M263.319,208.264c1.128,0.393,2.24,0.811,3.343,1.241c-0.03-0.043-0.06-0.085-0.089-0.128
				C265.496,208.953,264.412,208.576,263.319,208.264z"/>
			<path style="fill:#99683F;" d="M255.503,201.987c0.125,0.031,0.251,0.058,0.376,0.09c-0.141-0.036-0.257-0.066-0.326-0.083
				C255.536,201.992,255.519,201.99,255.503,201.987z"/>
			<path style="fill:#99683F;" d="M276.547,211.835c-1.217-0.924-2.439-1.816-3.664-2.692c-2.684-1.66-5.463-3.145-8.363-4.378
				c-2.807-1.15-7.082-2.287-8.543-2.663c2.35,0.625,4.715,1.581,7.511,2.827c1.022,1.481,2.052,2.964,3.085,4.448
				c1.177,0.464,2.347,0.987,3.51,1.542c3.355,1.461,6.59,3.104,9.705,4.926c0.264,0.128,0.527,0.259,0.791,0.383
				C279.309,214.693,277.955,213.234,276.547,211.835z"/>
			<path style="fill:#99683F;" d="M263.488,204.93c-2.796-1.246-5.161-2.202-7.511-2.827c-0.035-0.009-0.067-0.017-0.098-0.025
				c-0.125-0.033-0.251-0.06-0.376-0.09c-0.013-0.002-0.025-0.004-0.038-0.006c1.042,1.51,2.11,3.029,3.19,4.552
				c0.407,0.192,0.808,0.393,1.213,0.589c1.165,0.36,2.312,0.745,3.452,1.143c1.093,0.311,2.177,0.688,3.254,1.114
				C265.54,207.894,264.51,206.41,263.488,204.93z"/>
			<path style="fill:#99683F;" d="M255.457,201.971c0.002,0.002,0.003,0.005,0.005,0.007c0.014,0.003,0.027,0.006,0.041,0.01
				c0.017,0.003,0.033,0.005,0.05,0.007C255.494,201.98,255.458,201.971,255.457,201.971z"/>
			<path style="fill:#99683F;" d="M265.293,205.099c-0.24-0.111-0.501-0.222-0.773-0.333c2.9,1.233,5.679,2.718,8.363,4.378
				c-0.295-0.211-0.587-0.436-0.882-0.643C268.843,206.281,268.621,206.636,265.293,205.099z"/>
			<path style="fill:#99683F;" d="M255.465,201.981c0.013,0.002,0.025,0.004,0.038,0.006c-0.014-0.003-0.027-0.006-0.041-0.01
				C255.463,201.979,255.464,201.98,255.465,201.981z"/>
			<path style="fill:#99683F;" d="M272.476,349.075c1.561,1.563,3.116,3.132,4.676,4.694c2.003,2.006,4.095,3.88,6.35,5.566
				c1.902,0.496,3.65,1.546,5.61,2.278c5.816,2.172,11.614,2.964,17.708,0.91c7.605-2.563,12.723-8.993,12.964-16.465
				C301.772,358.964,286.833,356.542,272.476,349.075z"/>
			<path style="fill:#99683F;" d="M272.063,345.381c-10.254-9.592-20.622-17.579-31.422-24.282c0.918,0.898,1.708,1.686,2.272,2.186
				c5.11,4.532,10.655,8.753,15.951,13.121c4.793,3.953,9.23,8.283,13.612,12.669c14.357,7.467,29.296,9.889,47.308-3.018
				C303.79,353.159,285.57,356.637,272.063,345.381z"/>
			<path style="fill:#A77248;" d="M357.579,284.293c-0.137-0.266-0.288-0.527-0.436-0.789c-3.419-6.039-9.82-11.043-16.124-15.742
				c-1.492-1.112-2.976-2.208-4.414-3.297c-0.31-0.235-0.62-0.469-0.925-0.704c-12.095-9.275-23.646-20.506-35.202-31.266
				c-0.377-0.089-0.755-0.179-1.147-0.266c0.365,0.081,0.734,0.147,1.101,0.223c-2.202-2.05-4.405-4.081-6.611-6.08l0,0
				c-0.641-0.581-1.285-1.141-1.927-1.716c-1.168-1.047-2.336-2.102-3.508-3.123c-2.752-2.066-5.625-3.95-8.596-5.687
				c-3.115-1.822-6.35-3.464-9.705-4.926c-1.127-0.491-2.266-0.964-3.421-1.415c-1.103-0.431-2.215-0.848-3.343-1.241
				c-1.139-0.397-2.287-0.783-3.452-1.143c0.001,0,0.001,0.001,0.002,0.001c-0.406-0.195-0.808-0.398-1.215-0.59
				c0.22,0.311,0.448,0.624,0.67,0.936c-1.453-0.164-2.923-0.195-4.416-0.022c-7.137,0.827-12.672,5.088-17.755,10.171
				c-0.253,0.333-0.499,0.671-0.757,0.999l-0.033-0.199c-4.819,4.936-9.279,10.497-14.383,14.401
				c-9.634,7.368-20.868,12.59-32.63,14.812c-1.844,0.348-3.699,0.629-5.565,0.827c-1.714,0.181-3.459,0.288-5.175,0.171
				c-1.297-0.089-2.578-0.302-3.814-0.728c-2.873-0.99-5.493-3.283-6.211-6.358c-0.327-1.4-0.238-2.92,0.341-4.228
				c0.075-0.169,0.166-0.326,0.256-0.485c-0.649-0.653-1.132-1.353-1.468-2.091c-0.368-0.808-0.568-1.661-0.615-2.55
				c1.732,0.755,3.511,1.337,5.313,1.787c0.396-0.178,0.802-0.33,1.216-0.441c3.762-1.002,7.631,0.525,11.483,1.189
				c4.347-0.548,8.583-1.908,12.457-4.039c1.194-2.041,2.366-4.095,3.406-6.207c4.131-8.389,7.039-16.922,12.125-24.897
				c3.976-6.235,8.673-12.155,13.26-18.059c4.831-6.218,9.382-12.49,13.971-18.861c3.754-5.212,2.964-8.115-1.595-9.858
				c-1.104-0.422-2.422-0.778-3.959-1.08c-6.694-1.315-12.588-1.749-19.331-0.382c-18.768,3.804-36.333,19.548-52.013,29.64
				c-11.024,7.096-22.757,6.898-35.226,4.429c-21.824-4.321-44.274-10.349-65.093-18.296c-14.083-5.375-27.87-11.438-41.935-16.792
				c-4.871-1.854-14.272-4.511-20.963-7.973v93.41c6.398,5.816,16.28,12.4,19.135,14.531c9.92,7.406,20.643,13.858,32.13,18.527
				c20.3,8.252,48.161,13.569,67.267-0.154c4.926-3.538,11.118-8.314,16.256-5.092c0.465,0.291,0.867,0.645,1.243,1.021
				c-0.576,0.448-1.02,0.991-1.346,1.608c-1.253,2.367-0.826,5.753,0.124,8.462c6.89,19.653,28.005,30.411,48.114,35.828
				c16.866,4.544,34.745,6.927,50.409,14.22c0.745,4.697,1.129,8.896,3.451,10.289c11,6,17,15,19,27c2,7,15,10,23,6
				c0.023-0.023,0.047-0.051,0.07-0.075c1.665-2.281,2.41-5.093,1.516-8.138c-1.734-1.852-3.482-3.675-5.18-5.585
				c-1.141-1.284-2.32-2.531-3.52-3.757c-0.316-0.323-0.642-0.636-0.962-0.955c-0.93-0.928-1.868-1.848-2.825-2.748
				c-0.096-0.091-0.195-0.18-0.291-0.271c0.011,0.007,0.023,0.013,0.034,0.02c-0.21-0.196-0.426-0.385-0.637-0.579
				c-1.073-0.993-2.156-1.976-3.256-2.943c-0.14-0.123-0.28-0.247-0.42-0.37c-4.833-4.223-9.875-8.23-14.863-12.265
				c-0.336-0.272-0.673-0.544-1.009-0.816c-1.663-1.349-3.319-2.703-4.955-4.072c-3.108-2.603-9.126-6.044-11.449-9.793
				c-0.204-0.33-0.387-0.661-0.531-0.996c-0.01-0.022-0.023-0.045-0.032-0.067c2.704-0.419,7.006,3.626,9.952,6.507
				c10.8,6.703,21.168,14.69,31.422,24.282c13.507,11.256,31.727,7.778,47.721,0.676c0.045-1.395-0.076-2.826-0.385-4.275
				c-2.099-2.114-4.236-4.148-6.305-6.312c-10.041-10.502-22.299-18.67-33.724-27.553c-3.501-2.722-20.128-17.572-21.993-21.667
				c0.099-0.019,0.211-0.018,0.33-0.009c0.036,0.003,0.074,0.01,0.111,0.015c0.091,0.014,0.187,0.034,0.287,0.062
				c0.042,0.012,0.082,0.022,0.126,0.036c0.14,0.045,0.285,0.099,0.441,0.169c0.021,0.009,0.044,0.022,0.065,0.032
				c0.138,0.064,0.283,0.138,0.433,0.219c0.062,0.034,0.126,0.071,0.19,0.107c0.119,0.068,0.241,0.142,0.367,0.22
				c0.067,0.042,0.134,0.083,0.203,0.127c0.181,0.117,0.367,0.241,0.559,0.376c0.001,0.001,0.003,0.002,0.005,0.003
				c27.708,11.806,47.606,50.12,78.835,47.208c4.942-5.051,6.929-12.463,3.054-19.63c-8.275-7.257-17.399-13.601-26.046-20.352
				c-3.495-2.729-34.268-25.985-36.125-30.084c0.107-0.02,0.24-0.014,0.395,0.015c0.066,0.012,0.15,0.043,0.224,0.064
				c0.099,0.028,0.192,0.049,0.305,0.091c0.114,0.042,0.246,0.104,0.373,0.16c0.092,0.041,0.178,0.075,0.277,0.123
				c0.162,0.078,0.342,0.175,0.522,0.272c0.08,0.043,0.155,0.081,0.239,0.128c0.213,0.119,0.441,0.254,0.675,0.395
				c0.061,0.037,0.119,0.07,0.182,0.109c0.262,0.161,0.539,0.337,0.825,0.522c0.042,0.027,0.082,0.052,0.124,0.08
				c0.31,0.203,0.634,0.419,0.969,0.648c0.02,0.013,0.039,0.026,0.059,0.04c0.353,0.242,0.719,0.497,1.097,0.764
				c0.002,0.001,0.004,0.003,0.006,0.004c24.699,9.366,41.918,40.107,68.129,37.559c0.285-0.328,0.563-0.662,0.826-1.005
				c0.026-0.034,0.049-0.07,0.075-0.105c1.129-1.492,2.038-3.108,2.686-4.739c0.056-0.141,0.123-0.28,0.174-0.421
				C360.501,293.661,359.847,288.701,357.579,284.293z"/>
			<path style="fill:#F6C4A5;" d="M300.478,232.496c-0.015-0.014-0.031-0.029-0.046-0.043c-0.366-0.077-0.736-0.142-1.101-0.223
				C299.723,232.317,300.1,232.406,300.478,232.496z"/>
		</g>
		<g>
			<path style="fill:#F8D3BB;" d="M183.194,225.934c7.645-2.867,20.067-9.556,16.245-17.2c-2.07-4.657-6.389-8.459-11.576-10.676
				c-2.618,3.84-5.23,7.825-8.148,11.967c-2.458,3.489-6.668,8.247-9.548,13.027C174.111,225.756,179.13,227.288,183.194,225.934z"
				/>
			<path style="fill:none;" d="M336.605,264.465c1.438,1.088,2.922,2.184,4.414,3.297c-1.886-2.054-3.262-3.648-4.129-5.168
				C336.773,263.223,336.674,263.848,336.605,264.465z"/>
			<path style="fill:#F4B58E;" d="M337.735,250.957c1.53-2.006,3.039-4.198,4.265-6.957c1-3-4-6-6-6
				c-16.457,3.405-19.905-1.805-35.522-5.504c11.556,10.759,23.107,21.99,35.202,31.266c0.305,0.234,0.615,0.469,0.925,0.704
				c0.07-0.617,0.168-1.241,0.285-1.871C335.14,259.524,335.448,256.735,337.735,250.957z"/>
			<path style="fill:#F6C4A5;" d="M451.194,134.199c-4.073,1.538-8.134,3.043-12.196,4.542c-5.863,2.163-11.729,4.299-17.633,6.389
				c-13.161,4.659-26.424,9.18-39.836,13.028c-6.307,1.81-12.644,3.485-19.025,4.93c-14.767,3.346-29.476,8.54-44.41,4.588
				c-4.596-1.217-9.118-2.606-13.604-4.089c-10.939-3.617-21.64-7.856-32.5-11.959c-20.555-7.767-34.965-0.155-49.368,11.296
				c-5.357,4.259-10.712,9.046-16.383,13.775c-7.839,6.539-13.12,13.65-18.376,21.358c5.187,2.217,9.506,6.019,11.576,10.676
				c3.822,7.645-8.6,14.334-16.245,17.2c-4.064,1.355-9.083-0.178-13.026-2.883c-1.901,3.156-3.218,6.32-3.069,9.136
				c11.918,5.195,25.965,3.093,35.9-5.187c16-13,26-42,51-33c16.113,6.592,28.467,19.087,39.82,32.373
				c2.206,1.999,4.409,4.03,6.611,6.08c0.015,0.014,0.031,0.029,0.046,0.043c15.617,3.699,19.065,8.909,35.522,5.504c2,0,7,3,6,6
				c-1.226,2.758-2.734,4.951-4.265,6.957c-2.288,5.778-2.596,8.567-0.845,11.637c0.867,1.52,2.243,3.114,4.129,5.168
				c6.578,4.903,13.271,10.135,16.56,16.531c8.168-3.026,24.451-9.747,33.689-13.956c0.064-0.148,0.13-0.275,0.195-0.416
				c1.27-6.219,5.075-4.602,6.248-11.346c0.113-0.65,0.225-0.325,0.519-0.907c0.071-0.141,0.153-0.277,0.248-0.406
				c1.042-1.412,3.137-2.381,4.87-2.102c3.655,0.589,7.334-0.818,10.915-1.4c4.048-0.658,8.128-1.105,12.158-1.878
				c10.228-1.961,19.929-5.967,29.179-10.667c4.238-2.153,9.794-4.259,13.319-7.466c3.478-3.164,7.039-6.431,10.223-9.93
				c9.285-10.206,13.996-23.191,20.858-34.655v-57.2v-16.915C486.209,121.006,458.327,131.505,451.194,134.199z"/>
			<path style="fill:#F4B58E;" d="M400.711,257.575c3.671,13.112-4.151,1.303-9.248,12.346c-0.023,0.112-0.051,0.207-0.072,0.324
				c9.532-3.537,19.29-4.363,29.358-5.162c16.62-1.319,33.354-3.686,49.622-7.836c6.344-1.618,19.306-4.159,29.629-7.502v-51.912
				C492.803,223.158,478.191,262.989,400.711,257.575z"/>
			<path style="fill:#F4B58E;" d="M400.711,257.575c77.48,5.414,92.092-34.417,99.289-59.741v-8.671
				c-6.862,11.465-11.573,24.449-20.858,34.655c-3.184,3.5-6.744,6.766-10.223,9.93c-3.526,3.207-9.082,5.313-13.319,7.466
				c-9.25,4.7-18.951,8.706-29.179,10.667c-4.029,0.773-8.11,1.22-12.158,1.878c-3.581,0.582-7.26,1.989-10.915,1.4
				c-1.733-0.279-3.828,0.69-4.87,2.102c-0.095,0.129-0.177,0.265-0.248,0.406c-0.293,0.583-0.406,0.257-0.519,0.907
				c-1.173,6.745-4.978,5.128-6.248,11.346C396.56,258.878,404.383,270.687,400.711,257.575z"/>
		</g>
		<g>
			<path style="fill:#F6C4A5;" d="M243.668,366.019c10.832-14.814-3.223-31.631-18.477-21.673
				c-3.855,6.356-6.281,13.251-3.774,20.146c2.591,5.183,7.156,8.38,12.311,9.474C237.672,372.384,241.263,369.309,243.668,366.019z
				"/>
			<path style="fill:#F4B58E;" d="M221.417,364.492c-2.507-6.895-0.081-13.79,3.774-20.146c-0.113,0.074-0.225,0.135-0.339,0.212
				c0.342-0.406,0.662-0.816,0.971-1.228c0.493-0.777,1.006-1.545,1.531-2.304c0.744-1.271,1.338-2.559,1.775-3.847
				c-14.086,11.201-38.869,24.82-49.645,4.575c-0.04,0.111-0.076,0.223-0.115,0.334c0.146,0.609,0.17,1.744,0.476,3.676
				c0.116,0.736,0.203,1.431,0.278,2.097c0.068,0.128,0.137,0.25,0.205,0.387c-0.068-0.137-0.137-0.259-0.205-0.387
				c0.482,4.302,0.429,7.302,4.119,11.029c9.744,9.841,21.456,4.391,31.443-0.754c2.799,5.085-0.091,10.637,6.106,14.898
				c3.786,2.603,8.035,2.5,11.938,0.933C228.573,372.872,224.009,369.675,221.417,364.492z"/>
			<path style="fill:#F6C4A5;" d="M178.231,309.855c-3.156-0.846-6.61-0.862-9.37,0.116c-8.83,3.127-18.805,15.336-18.178,25.074
				c1.068,2.899,2.971,5.145,6.049,5.949c12.361,3.226,23.112-3.378,31.191-12.34c-0.678-5.284,0.604-12.194-4.006-15.994
				C182.362,311.379,180.365,310.427,178.231,309.855z"/>
			<path style="fill:#F6C4A5;" d="M229.129,337.179c2.936-8.651-1.016-17.315-11.604-20.967c-7.371-2.543-14.507-0.19-20.603,4.183
				c-1.561,1.12-2.839,2.631-4.107,4.057c-0.67,0.754-1.381,1.489-1.98,2.297c-0.46,0.621-1.097,0.93-1.655,1.466
				c-0.385,0.37-0.746,0.766-1.138,1.133c-0.595,0.557-1.125,1.161-1.691,1.742c-1.091,1.118-2.03,2.273-2.982,3.513
				c-1.052,1.372-1.84,2.767-2.626,4.299c-0.309,0.603-0.508,1.254-0.771,1.877c-0.311,0.738-0.537,0.914-0.12,1.646
				c0.576,1.01,1.216,1.983,1.934,2.898c3.574,4.551,8.824,6.883,14.573,6.832c6.047-0.054,11.961-2.254,17.302-4.934
				c2.852-1.431,5.605-3.058,8.269-4.815c1.285-0.848,2.549-1.727,3.793-2.633c0.598-0.436,1.192-0.879,1.78-1.328
				C227.847,338.183,228.994,337.576,229.129,337.179z"/>
			<path style="fill:#F4B58E;" d="M181.6,340.047c1.418-1.554,2.645-3.36,3.633-5.168c0.728-1.332,1.414-2.603,1.983-4.018
				c0.245-0.609,0.788-1.335,0.653-2.013c-0.699,0.224-1.525,1.498-2.071,2.043c-0.734,0.732-1.488,1.443-2.264,2.13
				c-1.532,1.356-3.15,2.617-4.859,3.743c-3.319,2.187-7.004,3.862-10.921,4.614c-3.654,0.701-7.424,0.555-11.022-0.384
				c-2.864-0.748-4.858-2.94-5.928-5.629c-0.036,1.17,0.18,2.399,0.498,3.526c0.21,0.744,0.424,1.423,0.797,2.101
				c1.318,2.393,4.933,3.856,7.342,4.781c2.719,1.044,5.797,1.718,8.704,1.172c1.802-0.338,3.569-0.835,5.311-1.404
				c0.794-0.259,1.63-0.496,2.405-0.777c0.657-0.238,1.095-0.711,1.66-1.106c1.018-0.712,1.949-1.55,2.863-2.389
				C180.804,340.885,181.209,340.476,181.6,340.047z"/>
			<path style="fill:#F8D3BB;" d="M194.661,334.869c3.61-7.399,17.781-12.399,23.889-3.064c2.756,4.212,1.957,10.357-2.628,11.903
				c-6.049,2.039-17.486-3.493-20.305-8.839"/>
			<path style="fill:#F8D3BB;" d="M162.345,323.823c2.556-5.238,12.588-8.778,16.912-2.169c1.951,2.982,1.385,7.332-1.86,8.427
				c-4.282,1.444-12.379-2.473-14.375-6.258"/>
			<path style="fill:#F8D3BB;" d="M224.71,355.733c2.556-5.238,12.588-8.778,16.912-2.169c1.951,2.982,1.385,7.333-1.86,8.427
				c-4.282,1.444-12.379-2.473-14.375-6.258"/>
		</g>
	</g>
</g>
<g id="DESIGNED_BY_FREEPIK">
	<g>
		<g>
			<path style="fill:#CCFFFF;" d="M179.552,469.717v-0.161c-0.218,0.249-0.433,0.452-0.644,0.608
				c-0.212,0.157-0.441,0.276-0.689,0.356c-0.247,0.082-0.517,0.122-0.81,0.122c-0.388,0-0.747-0.082-1.078-0.246
				c-0.33-0.164-0.616-0.399-0.857-0.704c-0.242-0.305-0.425-0.662-0.549-1.074c-0.124-0.412-0.187-0.857-0.187-1.335
				c0-1.013,0.247-1.804,0.742-2.369c0.495-0.565,1.146-0.848,1.953-0.848c0.467,0,0.861,0.081,1.181,0.24
				c0.321,0.16,0.633,0.408,0.938,0.739v-2.392c0-0.333,0.066-0.584,0.199-0.754c0.132-0.17,0.321-0.255,0.567-0.255
				c0.245,0,0.434,0.078,0.567,0.234c0.133,0.157,0.199,0.386,0.199,0.691v7.147c0,0.309-0.071,0.54-0.214,0.695
				c-0.142,0.154-0.326,0.231-0.552,0.231c-0.221,0-0.405-0.08-0.549-0.24C179.624,470.242,179.552,470.014,179.552,469.717z
				 M176.364,467.337c0,0.439,0.068,0.813,0.205,1.122c0.137,0.309,0.324,0.541,0.561,0.697c0.238,0.157,0.497,0.236,0.778,0.236
				c0.285,0,0.545-0.074,0.781-0.223c0.235-0.148,0.423-0.376,0.564-0.682c0.141-0.307,0.21-0.691,0.21-1.149
				c0-0.432-0.07-0.803-0.21-1.114c-0.14-0.31-0.33-0.547-0.57-0.712c-0.24-0.164-0.502-0.245-0.786-0.245
				c-0.297,0-0.562,0.084-0.795,0.252c-0.234,0.168-0.415,0.409-0.543,0.724C176.428,466.556,176.364,466.921,176.364,467.337z"/>
			<path style="fill:#CCFFFF;" d="M186.698,467.747h-3.169c0.004,0.367,0.078,0.692,0.223,0.973
				c0.144,0.281,0.336,0.493,0.576,0.635c0.24,0.143,0.504,0.213,0.793,0.213c0.194,0,0.371-0.022,0.531-0.067
				c0.16-0.046,0.315-0.117,0.466-0.214c0.15-0.096,0.289-0.201,0.415-0.312c0.126-0.111,0.29-0.262,0.493-0.452
				c0.083-0.071,0.202-0.107,0.357-0.107c0.166,0,0.3,0.046,0.403,0.137c0.103,0.092,0.155,0.219,0.155,0.386
				c0,0.146-0.058,0.317-0.172,0.513c-0.116,0.196-0.289,0.384-0.52,0.564c-0.232,0.18-0.522,0.329-0.873,0.448
				c-0.35,0.119-0.753,0.178-1.208,0.178c-1.04,0-1.85-0.297-2.428-0.891c-0.578-0.593-0.866-1.399-0.866-2.416
				c0-0.479,0.071-0.924,0.213-1.332c0.143-0.41,0.351-0.761,0.623-1.054c0.273-0.293,0.609-0.517,1.009-0.674
				c0.4-0.156,0.843-0.234,1.33-0.234c0.633,0,1.176,0.133,1.629,0.4c0.454,0.267,0.794,0.612,1.019,1.035
				c0.225,0.424,0.339,0.856,0.339,1.294c0,0.408-0.117,0.672-0.35,0.793C187.45,467.686,187.122,467.747,186.698,467.747z
				 M183.528,466.827h2.939c-0.039-0.554-0.19-0.969-0.448-1.244c-0.259-0.275-0.6-0.413-1.024-0.413
				c-0.404,0-0.735,0.139-0.994,0.418C183.741,465.867,183.584,466.28,183.528,466.827z"/>
			<path style="fill:#CCFFFF;" d="M194.082,468.523c0,0.447-0.108,0.831-0.327,1.149c-0.217,0.319-0.539,0.56-0.965,0.724
				c-0.425,0.164-0.943,0.246-1.552,0.246c-0.582,0-1.08-0.089-1.496-0.267c-0.415-0.178-0.722-0.401-0.92-0.667
				c-0.198-0.268-0.297-0.535-0.297-0.805c0-0.178,0.063-0.33,0.19-0.456c0.126-0.126,0.287-0.19,0.481-0.19
				c0.17,0,0.3,0.042,0.391,0.125c0.091,0.083,0.178,0.2,0.261,0.35c0.166,0.29,0.366,0.504,0.597,0.648
				c0.231,0.142,0.547,0.214,0.947,0.214c0.324,0,0.59-0.073,0.798-0.217c0.208-0.145,0.311-0.31,0.311-0.496
				c0-0.285-0.107-0.492-0.324-0.622c-0.216-0.131-0.571-0.256-1.066-0.375c-0.558-0.138-1.012-0.284-1.362-0.436
				c-0.35-0.151-0.63-0.353-0.84-0.602c-0.21-0.25-0.315-0.557-0.315-0.92c0-0.324,0.097-0.631,0.291-0.92
				c0.194-0.288,0.48-0.519,0.859-0.691c0.377-0.173,0.833-0.259,1.367-0.259c0.419,0,0.797,0.043,1.131,0.131
				c0.335,0.086,0.614,0.204,0.837,0.35c0.224,0.146,0.394,0.308,0.51,0.486c0.117,0.178,0.175,0.352,0.175,0.523
				c0,0.185-0.062,0.338-0.186,0.457c-0.125,0.118-0.301,0.178-0.532,0.178c-0.166,0-0.308-0.048-0.424-0.143
				c-0.117-0.095-0.25-0.237-0.401-0.427c-0.123-0.158-0.266-0.285-0.433-0.38c-0.166-0.095-0.392-0.142-0.677-0.142
				c-0.293,0-0.536,0.062-0.73,0.187c-0.194,0.124-0.291,0.279-0.291,0.465c0,0.171,0.071,0.31,0.213,0.419
				c0.143,0.109,0.334,0.2,0.576,0.27c0.242,0.071,0.573,0.158,0.997,0.261c0.502,0.123,0.912,0.27,1.231,0.44
				c0.318,0.17,0.56,0.371,0.725,0.603C194,467.963,194.082,468.227,194.082,468.523z"/>
			<path style="fill:#CCFFFF;" d="M195.738,463.301c-0.226,0-0.418-0.07-0.579-0.208c-0.16-0.138-0.24-0.334-0.24-0.588
				c0-0.23,0.082-0.418,0.246-0.567c0.164-0.149,0.355-0.223,0.573-0.223c0.21,0,0.396,0.067,0.558,0.202
				c0.162,0.135,0.244,0.33,0.244,0.588c0,0.25-0.08,0.444-0.238,0.585C196.143,463.23,195.955,463.301,195.738,463.301z
				 M196.539,464.974v4.683c0,0.325-0.077,0.571-0.232,0.737c-0.155,0.166-0.35,0.249-0.588,0.249c-0.238,0-0.431-0.085-0.579-0.255
				c-0.149-0.17-0.222-0.414-0.222-0.73v-4.636c0-0.32,0.074-0.562,0.222-0.724c0.148-0.162,0.341-0.243,0.579-0.243
				c0.238,0,0.433,0.081,0.588,0.243C196.462,464.46,196.539,464.685,196.539,464.974z"/>
			<path style="fill:#CCFFFF;" d="M203.639,465.241v4.707c0,0.538-0.058,1.001-0.173,1.39c-0.114,0.387-0.298,0.708-0.552,0.961
				c-0.253,0.253-0.585,0.441-0.994,0.563c-0.41,0.123-0.919,0.184-1.529,0.184c-0.558,0-1.056-0.078-1.496-0.234
				c-0.439-0.157-0.777-0.358-1.015-0.605c-0.237-0.247-0.357-0.502-0.357-0.763c0-0.198,0.068-0.359,0.202-0.483
				c0.134-0.125,0.297-0.187,0.487-0.187c0.237,0,0.445,0.105,0.623,0.314c0.087,0.107,0.177,0.215,0.27,0.324
				c0.093,0.109,0.197,0.202,0.309,0.28c0.113,0.076,0.249,0.134,0.406,0.172c0.158,0.037,0.341,0.056,0.546,0.056
				c0.42,0,0.745-0.058,0.977-0.175c0.232-0.117,0.394-0.28,0.487-0.49c0.093-0.209,0.147-0.433,0.163-0.673
				c0.016-0.24,0.027-0.624,0.035-1.155c-0.25,0.349-0.537,0.615-0.864,0.796c-0.326,0.182-0.715,0.273-1.166,0.273
				c-0.542,0-1.016-0.139-1.422-0.416c-0.405-0.277-0.717-0.665-0.934-1.163c-0.218-0.499-0.326-1.074-0.326-1.727
				c0-0.487,0.066-0.927,0.198-1.318c0.133-0.392,0.322-0.723,0.567-0.992c0.245-0.269,0.528-0.472,0.849-0.608
				c0.321-0.136,0.673-0.204,1.057-0.204c0.459,0,0.857,0.089,1.193,0.264c0.336,0.177,0.649,0.453,0.938,0.829v-0.22
				c0-0.281,0.069-0.498,0.208-0.653c0.139-0.154,0.317-0.231,0.535-0.231c0.313,0,0.52,0.103,0.623,0.306
				C203.587,464.564,203.639,464.858,203.639,465.241z M198.943,467.295c0,0.657,0.143,1.154,0.43,1.49
				c0.287,0.337,0.658,0.505,1.113,0.505c0.269,0,0.523-0.073,0.762-0.217c0.24-0.145,0.435-0.363,0.585-0.653
				c0.15-0.291,0.226-0.644,0.226-1.06c0-0.66-0.145-1.176-0.436-1.543c-0.291-0.368-0.674-0.552-1.149-0.552
				c-0.463,0-0.834,0.176-1.113,0.529C199.082,466.146,198.943,466.647,198.943,467.295z"/>
			<path style="fill:#CCFFFF;" d="M206.214,464.95v0.196c0.285-0.376,0.596-0.652,0.935-0.828c0.338-0.176,0.727-0.264,1.166-0.264
				c0.427,0,0.809,0.093,1.146,0.28c0.336,0.186,0.588,0.449,0.753,0.789c0.108,0.198,0.176,0.413,0.208,0.642
				c0.032,0.23,0.048,0.522,0.048,0.879v3.015c0,0.325-0.075,0.571-0.223,0.737c-0.148,0.166-0.341,0.249-0.579,0.249
				c-0.242,0-0.437-0.085-0.588-0.255c-0.151-0.17-0.225-0.414-0.225-0.73v-2.701c0-0.534-0.074-0.943-0.223-1.226
				c-0.149-0.283-0.444-0.425-0.888-0.425c-0.288,0-0.552,0.086-0.789,0.258c-0.237,0.173-0.412,0.41-0.522,0.71
				c-0.079,0.242-0.119,0.692-0.119,1.353v2.03c0,0.328-0.077,0.576-0.228,0.74c-0.152,0.164-0.349,0.246-0.59,0.246
				c-0.234,0-0.426-0.085-0.576-0.255c-0.15-0.17-0.225-0.414-0.225-0.73v-4.683c0-0.309,0.067-0.54,0.202-0.692
				c0.135-0.152,0.319-0.228,0.552-0.228c0.143,0,0.272,0.034,0.387,0.101c0.114,0.068,0.207,0.169,0.276,0.302
				C206.179,464.592,206.214,464.757,206.214,464.95z"/>
			<path style="fill:#CCFFFF;" d="M216.073,467.747h-3.17c0.004,0.367,0.078,0.692,0.223,0.973c0.144,0.281,0.336,0.493,0.576,0.635
				c0.239,0.143,0.503,0.213,0.792,0.213c0.194,0,0.371-0.022,0.532-0.067c0.16-0.046,0.315-0.117,0.466-0.214
				c0.15-0.096,0.288-0.201,0.416-0.312c0.126-0.111,0.29-0.262,0.492-0.452c0.083-0.071,0.202-0.107,0.356-0.107
				c0.166,0,0.301,0.046,0.404,0.137c0.103,0.092,0.154,0.219,0.154,0.386c0,0.146-0.057,0.317-0.172,0.513
				c-0.115,0.196-0.288,0.384-0.52,0.564c-0.232,0.18-0.522,0.329-0.872,0.448c-0.35,0.119-0.753,0.178-1.208,0.178
				c-1.041,0-1.85-0.297-2.428-0.891c-0.577-0.593-0.866-1.399-0.866-2.416c0-0.479,0.071-0.924,0.214-1.332
				c0.143-0.41,0.351-0.761,0.624-1.054c0.273-0.293,0.609-0.517,1.009-0.674c0.399-0.156,0.843-0.234,1.33-0.234
				c0.633,0,1.176,0.133,1.629,0.4c0.453,0.267,0.793,0.612,1.019,1.035c0.225,0.424,0.338,0.856,0.338,1.294
				c0,0.408-0.117,0.672-0.35,0.793C216.825,467.686,216.497,467.747,216.073,467.747z M212.903,466.827h2.938
				c-0.039-0.554-0.189-0.969-0.448-1.244c-0.259-0.275-0.6-0.413-1.024-0.413c-0.404,0-0.736,0.139-0.995,0.418
				C213.115,465.867,212.959,466.28,212.903,466.827z"/>
			<path style="fill:#CCFFFF;" d="M222.679,469.717v-0.161c-0.218,0.249-0.432,0.452-0.644,0.608
				c-0.212,0.157-0.441,0.276-0.688,0.356c-0.247,0.082-0.517,0.122-0.81,0.122c-0.389,0-0.747-0.082-1.078-0.246
				c-0.331-0.164-0.616-0.399-0.858-0.704c-0.242-0.305-0.424-0.662-0.549-1.074c-0.125-0.412-0.187-0.857-0.187-1.335
				c0-1.013,0.247-1.804,0.742-2.369c0.495-0.565,1.146-0.848,1.953-0.848c0.467,0,0.861,0.081,1.181,0.24
				c0.32,0.16,0.633,0.408,0.938,0.739v-2.392c0-0.333,0.066-0.584,0.199-0.754c0.132-0.17,0.322-0.255,0.567-0.255
				c0.245,0,0.434,0.078,0.567,0.234c0.133,0.157,0.199,0.386,0.199,0.691v7.147c0,0.309-0.071,0.54-0.214,0.695
				c-0.143,0.154-0.326,0.231-0.552,0.231c-0.222,0-0.405-0.08-0.549-0.24C222.751,470.242,222.679,470.014,222.679,469.717z
				 M219.492,467.337c0,0.439,0.068,0.813,0.204,1.122c0.137,0.309,0.324,0.541,0.562,0.697c0.237,0.157,0.496,0.236,0.777,0.236
				c0.285,0,0.546-0.074,0.781-0.223c0.236-0.148,0.424-0.376,0.564-0.682c0.141-0.307,0.211-0.691,0.211-1.149
				c0-0.432-0.07-0.803-0.211-1.114c-0.14-0.31-0.33-0.547-0.57-0.712c-0.24-0.164-0.502-0.245-0.787-0.245
				c-0.296,0-0.562,0.084-0.795,0.252c-0.233,0.168-0.414,0.409-0.543,0.724C219.556,466.556,219.492,466.921,219.492,467.337z"/>
			<path style="fill:#CCFFFF;" d="M229.303,462.57v2.475c0.304-0.316,0.615-0.559,0.932-0.727c0.316-0.168,0.709-0.252,1.175-0.252
				c0.538,0,1.01,0.128,1.416,0.382c0.405,0.256,0.72,0.626,0.944,1.111c0.223,0.484,0.336,1.06,0.336,1.725
				c0,0.491-0.063,0.94-0.187,1.35c-0.125,0.409-0.306,0.765-0.543,1.065c-0.238,0.301-0.525,0.534-0.864,0.698
				c-0.339,0.164-0.712,0.246-1.119,0.246c-0.25,0-0.484-0.029-0.703-0.089c-0.22-0.059-0.407-0.137-0.561-0.234
				c-0.154-0.096-0.286-0.197-0.395-0.3c-0.109-0.102-0.253-0.258-0.431-0.463v0.161c0,0.305-0.073,0.535-0.22,0.692
				c-0.146,0.156-0.332,0.234-0.558,0.234c-0.23,0-0.413-0.077-0.549-0.234c-0.137-0.157-0.205-0.388-0.205-0.692v-7.076
				c0-0.328,0.066-0.577,0.198-0.745c0.133-0.168,0.318-0.252,0.555-0.252c0.25,0,0.441,0.08,0.576,0.24
				C229.235,462.045,229.303,462.273,229.303,462.57z M229.38,467.384c0,0.645,0.147,1.14,0.442,1.486
				c0.295,0.347,0.682,0.521,1.161,0.521c0.407,0,0.759-0.177,1.053-0.532c0.295-0.355,0.442-0.862,0.442-1.523
				c0-0.427-0.061-0.796-0.184-1.104c-0.123-0.309-0.297-0.547-0.522-0.715c-0.226-0.168-0.489-0.252-0.79-0.252
				c-0.309,0-0.584,0.084-0.825,0.252c-0.242,0.168-0.431,0.411-0.57,0.73C229.449,466.565,229.38,466.945,229.38,467.384z"/>
			<path style="fill:#CCFFFF;" d="M236.207,470.845l0.148-0.363l-1.995-5.022c-0.122-0.288-0.184-0.499-0.184-0.629
				c0-0.139,0.036-0.267,0.107-0.385c0.071-0.119,0.169-0.214,0.294-0.285c0.125-0.072,0.255-0.107,0.389-0.107
				c0.233,0,0.409,0.074,0.529,0.223c0.119,0.148,0.223,0.361,0.314,0.638l1.372,3.989l1.3-3.71c0.103-0.3,0.196-0.536,0.279-0.706
				c0.083-0.17,0.171-0.285,0.264-0.344c0.093-0.06,0.225-0.09,0.395-0.09c0.123,0,0.24,0.032,0.353,0.098
				c0.113,0.065,0.2,0.153,0.261,0.264c0.061,0.111,0.092,0.227,0.092,0.35c-0.016,0.075-0.041,0.182-0.077,0.321
				c-0.036,0.138-0.079,0.28-0.13,0.421l-2.113,5.533c-0.183,0.486-0.361,0.868-0.535,1.145c-0.174,0.277-0.404,0.491-0.692,0.638
				c-0.287,0.149-0.674,0.223-1.161,0.223c-0.475,0-0.831-0.051-1.068-0.154c-0.238-0.104-0.356-0.292-0.356-0.564
				c0-0.186,0.056-0.33,0.169-0.43c0.112-0.101,0.28-0.152,0.501-0.152c0.087,0,0.173,0.012,0.256,0.037
				c0.103,0.023,0.192,0.035,0.267,0.035c0.186,0,0.333-0.027,0.44-0.084c0.106-0.055,0.202-0.151,0.288-0.288
				C235.998,471.311,236.096,471.11,236.207,470.845z"/>
		</g>
		<g>
			<path style="fill:#CCFFFF;" d="M259.683,464.194h0.386v-0.487c0-0.509,0.062-0.911,0.192-1.211
				c0.128-0.299,0.347-0.516,0.654-0.653c0.307-0.135,0.727-0.204,1.26-0.204c0.95,0,1.42,0.229,1.42,0.697
				c0,0.149-0.049,0.278-0.15,0.384c-0.096,0.106-0.214,0.16-0.349,0.16c-0.062,0-0.174-0.012-0.329-0.037
				c-0.148-0.021-0.283-0.035-0.389-0.035c-0.292,0-0.479,0.088-0.566,0.259c-0.079,0.172-0.122,0.418-0.122,0.74v0.386h0.396
				c0.62,0,0.926,0.185,0.926,0.56c0,0.262-0.079,0.431-0.245,0.503c-0.163,0.071-0.39,0.107-0.68,0.107h-0.396v4.294
				c0,0.319-0.075,0.563-0.231,0.73c-0.151,0.17-0.346,0.254-0.589,0.254c-0.229,0-0.419-0.084-0.574-0.254
				c-0.153-0.167-0.228-0.411-0.228-0.73v-4.294h-0.446c-0.243,0-0.427-0.052-0.558-0.164c-0.131-0.107-0.197-0.25-0.197-0.424
				C258.869,464.387,259.14,464.194,259.683,464.194"/>
			<path style="fill:#CCFFFF;" d="M264.989,468.303v1.355c0,0.327-0.083,0.574-0.234,0.737c-0.154,0.166-0.349,0.247-0.586,0.247
				c-0.239,0-0.43-0.082-0.579-0.25c-0.148-0.165-0.225-0.41-0.225-0.734v-4.514c0-0.729,0.262-1.093,0.788-1.093
				c0.271,0,0.464,0.084,0.583,0.255c0.119,0.171,0.184,0.421,0.198,0.755c0.192-0.334,0.39-0.584,0.593-0.755
				c0.208-0.171,0.477-0.255,0.819-0.255c0.343,0,0.67,0.084,0.991,0.255c0.322,0.171,0.482,0.398,0.482,0.678
				c0,0.197-0.069,0.362-0.204,0.488c-0.137,0.131-0.284,0.195-0.441,0.195c-0.062,0-0.207-0.039-0.433-0.112
				c-0.228-0.071-0.43-0.108-0.602-0.108c-0.237,0-0.433,0.064-0.582,0.186c-0.151,0.128-0.269,0.311-0.353,0.554
				c-0.081,0.247-0.137,0.541-0.17,0.878C265.003,467.403,264.989,467.817,264.989,468.303"/>
			<path style="fill:#CCFFFF;" d="M272.44,467.745h-3.171c0.005,0.367,0.077,0.694,0.222,0.974c0.147,0.279,0.337,0.491,0.578,0.635
				c0.24,0.142,0.502,0.212,0.793,0.212c0.194,0,0.371-0.021,0.531-0.07c0.159-0.043,0.316-0.116,0.466-0.213
				c0.151-0.095,0.288-0.199,0.415-0.313c0.126-0.109,0.292-0.26,0.494-0.449c0.084-0.071,0.203-0.109,0.355-0.109
				c0.168,0,0.301,0.046,0.406,0.139c0.104,0.092,0.152,0.219,0.152,0.386c0,0.147-0.055,0.317-0.167,0.512
				c-0.117,0.198-0.289,0.385-0.522,0.566c-0.234,0.178-0.524,0.329-0.873,0.446c-0.35,0.119-0.754,0.179-1.207,0.179
				c-1.044,0-1.852-0.296-2.429-0.889c-0.578-0.595-0.87-1.401-0.87-2.418c0-0.479,0.073-0.924,0.217-1.334
				c0.14-0.411,0.349-0.76,0.624-1.055c0.272-0.294,0.606-0.518,1.008-0.674c0.399-0.156,0.842-0.234,1.33-0.234
				c0.632,0,1.175,0.134,1.629,0.404c0.452,0.264,0.796,0.61,1.018,1.034c0.226,0.426,0.339,0.855,0.339,1.296
				c0,0.405-0.118,0.669-0.351,0.791C273.191,467.685,272.863,467.745,272.44,467.745 M269.268,466.824h2.938
				c-0.039-0.553-0.186-0.969-0.446-1.242c-0.261-0.276-0.599-0.413-1.025-0.413c-0.403,0-0.735,0.137-0.995,0.418
				C269.481,465.866,269.323,466.278,269.268,466.824"/>
			<path style="fill:#CCFFFF;" d="M279.182,467.745h-3.171c0.004,0.367,0.078,0.694,0.221,0.974
				c0.145,0.279,0.337,0.491,0.576,0.635c0.239,0.142,0.504,0.212,0.795,0.212c0.192,0,0.37-0.021,0.528-0.07
				c0.162-0.043,0.316-0.116,0.469-0.213c0.151-0.095,0.287-0.199,0.415-0.313c0.125-0.109,0.29-0.26,0.493-0.449
				c0.084-0.071,0.204-0.109,0.355-0.109c0.168,0,0.302,0.046,0.407,0.139c0.103,0.092,0.15,0.219,0.15,0.386
				c0,0.147-0.054,0.317-0.171,0.512c-0.11,0.198-0.284,0.385-0.519,0.566c-0.231,0.178-0.525,0.329-0.872,0.446
				c-0.349,0.119-0.755,0.179-1.209,0.179c-1.042,0-1.849-0.296-2.429-0.889c-0.577-0.595-0.868-1.401-0.868-2.418
				c0-0.479,0.073-0.924,0.217-1.334c0.142-0.411,0.349-0.76,0.623-1.055c0.272-0.294,0.608-0.518,1.009-0.674
				c0.398-0.156,0.844-0.234,1.331-0.234c0.63,0,1.174,0.134,1.633,0.404c0.45,0.264,0.791,0.61,1.013,1.034
				c0.225,0.426,0.341,0.855,0.341,1.296c0,0.405-0.12,0.669-0.351,0.791C279.932,467.685,279.604,467.745,279.182,467.745
				 M276.011,466.824h2.938c-0.04-0.553-0.19-0.969-0.447-1.242c-0.263-0.276-0.601-0.413-1.027-0.413
				c-0.403,0-0.735,0.137-0.996,0.418C276.222,465.866,276.063,466.278,276.011,466.824"/>
			<path style="fill:#CCFFFF;" d="M282.732,464.963v0.194c0.304-0.375,0.621-0.651,0.953-0.828c0.324-0.178,0.699-0.267,1.114-0.267
				c0.497,0,0.96,0.13,1.379,0.386c0.419,0.259,0.749,0.635,0.993,1.129c0.244,0.497,0.366,1.081,0.366,1.758
				c0,0.497-0.07,0.957-0.21,1.376c-0.14,0.418-0.336,0.767-0.58,1.05c-0.246,0.281-0.535,0.501-0.868,0.654
				c-0.339,0.151-0.695,0.227-1.08,0.227c-0.461,0-0.853-0.093-1.166-0.28c-0.314-0.182-0.614-0.458-0.901-0.816v2.433
				c0,0.71-0.26,1.069-0.778,1.069c-0.306,0-0.505-0.092-0.607-0.275c-0.095-0.187-0.146-0.452-0.146-0.807v-6.996
				c0-0.309,0.067-0.537,0.2-0.692c0.134-0.15,0.32-0.228,0.553-0.228c0.231,0,0.416,0.078,0.56,0.234
				C282.661,464.443,282.732,464.666,282.732,464.963 M285.909,467.317c0-0.428-0.067-0.796-0.197-1.102
				c-0.131-0.308-0.312-0.542-0.541-0.705c-0.229-0.164-0.489-0.248-0.77-0.248c-0.446,0-0.824,0.178-1.13,0.527
				c-0.308,0.354-0.462,0.872-0.462,1.558c0,0.641,0.153,1.146,0.46,1.504c0.305,0.358,0.679,0.536,1.133,0.536
				c0.268,0,0.519-0.079,0.748-0.233c0.232-0.158,0.416-0.392,0.552-0.704C285.839,468.138,285.909,467.76,285.909,467.317"/>
			<path style="fill:#CCFFFF;" d="M289.169,463.296c-0.226,0-0.418-0.071-0.577-0.209c-0.162-0.139-0.242-0.333-0.242-0.585
				c0-0.23,0.082-0.419,0.248-0.569c0.164-0.147,0.354-0.222,0.571-0.222c0.212,0,0.397,0.067,0.559,0.2
				c0.162,0.137,0.244,0.334,0.244,0.591c0,0.25-0.079,0.444-0.236,0.585C289.577,463.225,289.389,463.296,289.169,463.296
				 M289.972,464.97v4.689c0,0.322-0.077,0.568-0.231,0.732c-0.156,0.168-0.35,0.25-0.588,0.25c-0.238,0-0.428-0.084-0.58-0.254
				c-0.146-0.173-0.222-0.416-0.222-0.729v-4.642c0-0.319,0.076-0.559,0.222-0.721c0.152-0.165,0.342-0.245,0.58-0.245
				c0.238,0,0.432,0.079,0.588,0.245C289.894,464.458,289.972,464.684,289.972,464.97"/>
			<path style="fill:#CCFFFF;" d="M295.196,469.902l-1.428-2.354l-0.88,0.83v1.291c0,0.312-0.083,0.551-0.248,0.718
				c-0.16,0.17-0.354,0.254-0.566,0.254c-0.249,0-0.447-0.082-0.588-0.25c-0.142-0.165-0.215-0.41-0.215-0.734v-6.915
				c0-0.358,0.071-0.632,0.207-0.821c0.139-0.19,0.341-0.283,0.596-0.283c0.25,0,0.445,0.086,0.593,0.257
				c0.146,0.169,0.221,0.421,0.221,0.751v3.933l1.822-1.914c0.227-0.235,0.396-0.4,0.517-0.486c0.118-0.087,0.262-0.13,0.431-0.13
				c0.204,0,0.371,0.065,0.51,0.193c0.132,0.129,0.2,0.291,0.2,0.483c0,0.237-0.221,0.556-0.659,0.951l-0.861,0.789l1.662,2.614
				c0.121,0.196,0.212,0.34,0.265,0.441c0.052,0.1,0.081,0.2,0.081,0.289c0,0.258-0.071,0.459-0.213,0.61
				c-0.14,0.148-0.327,0.221-0.554,0.221c-0.198,0-0.352-0.051-0.458-0.16C295.526,470.374,295.377,470.18,295.196,469.902"/>
			<path style="fill:#CCFFFF;" d="M298.718,470.642c-0.245,0-0.455-0.079-0.634-0.238c-0.178-0.156-0.268-0.378-0.268-0.665
				c0-0.241,0.086-0.449,0.256-0.622c0.172-0.174,0.38-0.262,0.63-0.262c0.248,0,0.46,0.087,0.639,0.258
				c0.174,0.172,0.264,0.383,0.264,0.626c0,0.283-0.089,0.505-0.264,0.662C299.163,470.563,298.955,470.642,298.718,470.642"/>
			<path style="fill:#CCFFFF;" d="M306.78,468.636c0,0.2-0.06,0.417-0.182,0.646c-0.12,0.231-0.305,0.449-0.553,0.656
				c-0.247,0.207-0.557,0.377-0.935,0.502c-0.375,0.126-0.8,0.192-1.269,0.192c-1.004,0-1.786-0.294-2.349-0.876
				c-0.56-0.585-0.841-1.368-0.841-2.35c0-0.667,0.128-1.254,0.387-1.765c0.254-0.509,0.628-0.905,1.113-1.184
				c0.487-0.28,1.072-0.419,1.746-0.419c0.421,0,0.805,0.061,1.158,0.184c0.35,0.122,0.645,0.282,0.891,0.474
				c0.242,0.197,0.428,0.402,0.556,0.62c0.129,0.22,0.192,0.425,0.192,0.617c0,0.192-0.071,0.357-0.214,0.492
				c-0.147,0.134-0.322,0.203-0.524,0.203c-0.137,0-0.249-0.035-0.338-0.104c-0.09-0.07-0.19-0.181-0.299-0.339
				c-0.198-0.299-0.404-0.526-0.622-0.674c-0.214-0.152-0.488-0.226-0.821-0.226c-0.476,0-0.865,0.186-1.159,0.561
				c-0.292,0.372-0.44,0.888-0.44,1.534c0,0.305,0.039,0.587,0.114,0.842c0.073,0.254,0.182,0.472,0.325,0.652
				c0.144,0.179,0.315,0.315,0.516,0.409c0.203,0.096,0.425,0.141,0.665,0.141c0.326,0,0.604-0.075,0.836-0.225
				c0.235-0.151,0.439-0.38,0.616-0.689c0.099-0.182,0.204-0.323,0.318-0.427c0.114-0.102,0.256-0.156,0.422-0.156
				c0.198,0,0.363,0.077,0.491,0.226C306.714,468.305,306.78,468.467,306.78,468.636"/>
			<path style="fill:#CCFFFF;" d="M313.774,467.348c0,0.481-0.076,0.928-0.222,1.337c-0.154,0.408-0.37,0.758-0.656,1.049
				c-0.284,0.293-0.626,0.518-1.02,0.675c-0.4,0.154-0.844,0.234-1.337,0.234c-0.491,0-0.933-0.08-1.326-0.239
				c-0.389-0.156-0.732-0.384-1.016-0.676c-0.288-0.298-0.505-0.646-0.657-1.048c-0.143-0.402-0.219-0.846-0.219-1.332
				c0-0.491,0.077-0.941,0.224-1.349c0.151-0.409,0.368-0.758,0.649-1.046c0.282-0.289,0.621-0.511,1.019-0.669
				c0.402-0.156,0.844-0.234,1.326-0.234c0.49,0,0.936,0.078,1.337,0.239c0.398,0.157,0.739,0.384,1.027,0.674
				c0.286,0.297,0.502,0.643,0.65,1.045C313.699,466.416,313.774,466.859,313.774,467.348 M312.147,467.348
				c0-0.662-0.146-1.176-0.436-1.543c-0.289-0.372-0.681-0.555-1.171-0.555c-0.317,0-0.597,0.082-0.839,0.246
				c-0.242,0.164-0.425,0.406-0.556,0.728c-0.131,0.321-0.197,0.696-0.197,1.124c0,0.424,0.064,0.792,0.194,1.108
				c0.13,0.319,0.314,0.561,0.553,0.729c0.241,0.167,0.522,0.253,0.845,0.253c0.49,0,0.882-0.185,1.171-0.557
				C312,468.511,312.147,467.999,312.147,467.348"/>
			<path style="fill:#CCFFFF;" d="M319.956,467.467v2.154c0,0.342-0.075,0.595-0.231,0.767c-0.156,0.17-0.357,0.255-0.611,0.255
				c-0.245,0-0.446-0.085-0.595-0.255c-0.154-0.173-0.232-0.425-0.232-0.767v-2.582c0-0.408-0.013-0.726-0.04-0.953
				c-0.029-0.221-0.105-0.41-0.226-0.552c-0.123-0.147-0.318-0.22-0.582-0.22c-0.532,0-0.879,0.181-1.048,0.551
				c-0.167,0.36-0.254,0.883-0.254,1.567v2.189c0,0.336-0.076,0.592-0.226,0.765c-0.156,0.171-0.355,0.258-0.603,0.258
				c-0.247,0-0.448-0.087-0.604-0.258c-0.157-0.173-0.235-0.428-0.235-0.765v-4.637c0-0.306,0.07-0.538,0.209-0.695
				c0.143-0.16,0.329-0.239,0.556-0.239c0.223,0,0.407,0.077,0.557,0.222c0.148,0.149,0.222,0.354,0.222,0.615v0.153
				c0.283-0.334,0.584-0.582,0.903-0.738c0.323-0.162,0.676-0.241,1.07-0.241c0.407,0,0.757,0.082,1.049,0.244
				c0.293,0.163,0.533,0.409,0.725,0.735c0.275-0.33,0.568-0.577,0.881-0.738c0.313-0.161,0.658-0.241,1.039-0.241
				c0.441,0,0.826,0.089,1.146,0.262c0.319,0.174,0.558,0.425,0.717,0.747c0.138,0.295,0.206,0.756,0.206,1.385v3.164
				c0,0.342-0.076,0.595-0.229,0.767c-0.154,0.17-0.359,0.255-0.612,0.255c-0.247,0-0.446-0.087-0.603-0.258
				c-0.156-0.173-0.235-0.428-0.235-0.765v-2.726c0-0.349-0.015-0.627-0.043-0.836c-0.029-0.211-0.11-0.388-0.239-0.529
				c-0.132-0.142-0.331-0.215-0.596-0.215c-0.214,0-0.416,0.066-0.609,0.192c-0.192,0.124-0.342,0.298-0.45,0.508
				C320.018,466.289,319.956,466.773,319.956,467.467"/>
		</g>
		<g>
			<path style="fill:#CCFFFF;" d="M244.516,466.955c-0.001-0.003-0.001-0.006-0.001-0.011
				C244.515,466.949,244.515,466.952,244.516,466.955z"/>
			<path style="fill:#CCFFFF;" d="M244.598,467.474c0.001,0,0.001,0,0.001,0c-0.031-0.148-0.055-0.294-0.074-0.439
				C244.544,467.181,244.568,467.328,244.598,467.474z"/>
			<path style="fill:#CCFFFF;" d="M245.134,468.978c-0.004-0.006-0.007-0.013-0.011-0.021
				C245.127,468.964,245.13,468.971,245.134,468.978z"/>
			<path style="fill:#CCFFFF;" d="M245.083,468.877c-0.014-0.027-0.027-0.056-0.041-0.084
				C245.055,468.823,245.069,468.85,245.083,468.877z"/>
			<path style="fill:#CCFFFF;" d="M244.748,468.053c0.079,0.25,0.175,0.493,0.286,0.724c-0.113-0.236-0.206-0.479-0.283-0.724
				C244.75,468.053,244.749,468.053,244.748,468.053z"/>
			<path style="fill:#CCFFFF;" d="M250.789,460.745c0.313,0,0.544,0.025,0.809,0.07l0.075-0.477c0,0-0.732-0.225-1.694-0.147
				l-0.076-0.259c0.299-0.063,0.524-0.329,0.524-0.646c0-0.364-0.296-0.659-0.661-0.659c-0.364,0-0.66,0.295-0.66,0.659
				c0,0.317,0.224,0.583,0.522,0.646l0.084,0.289c-1.021,0.14-1.834,0.539-1.834,0.539l0.144,0.441
				c0.618-0.206,1.154-0.331,1.64-0.383C250.139,460.767,250.497,460.745,250.789,460.745z"/>
			<path style="fill:#CCFFFF;" d="M245.122,463.157l0.004-0.005c0.024-0.031,0.047-0.06,0.071-0.089l-0.196-0.141l-0.305-0.223
				c-0.017,0.024-0.497,0.465-0.876,1.28c-0.016-0.026-0.035-0.051-0.056-0.074c-0.114-0.124-0.272-0.187-0.474-0.184
				c-0.003,0-0.006,0-0.009,0c-0.125,0-0.21-0.042-0.267-0.092c0.056-0.071,0.089-0.16,0.089-0.258c0-0.23-0.187-0.418-0.418-0.418
				c-0.23,0-0.418,0.188-0.418,0.418c0,0.231,0.187,0.418,0.418,0.418c0.036,0,0.071-0.006,0.104-0.013
				c0.103,0.114,0.266,0.214,0.505,0.209c0.123-0.001,0.213,0.031,0.273,0.097c0.069,0.076,0.093,0.185,0.1,0.267
				c-0.001,0.001-0.001,0.003-0.002,0.003c-0.272,0.743-0.194,1.669-0.194,1.669l0.661,0.026c0.013-0.337,0.062-0.927,0.232-1.394
				C244.693,463.747,245.105,463.18,245.122,463.157z"/>
			<path style="fill:#CCFFFF;" d="M256.539,461.297c-0.23,0-0.418,0.187-0.418,0.418c0,0.036,0.005,0.07,0.015,0.103
				c-0.115,0.104-0.214,0.267-0.211,0.507c0.002,0.123-0.03,0.212-0.096,0.273c-0.053,0.047-0.12,0.072-0.185,0.088
				c-0.492-0.689-1.097-1.11-1.097-1.11l-0.474,0.508c0.358,0.326,0.725,0.734,1.08,1.244c0.246,0.352,0.499,0.806,0.71,1.259
				l0.64-0.304c0,0-0.292-0.722-0.704-1.37c0.072-0.025,0.144-0.064,0.207-0.12c0.125-0.113,0.187-0.273,0.183-0.474
				c-0.001-0.13,0.042-0.218,0.093-0.276c0.071,0.054,0.16,0.089,0.257,0.089c0.232,0,0.419-0.187,0.419-0.418
				C256.958,461.484,256.771,461.297,256.539,461.297z"/>
			<path style="fill:#CCFFFF;" d="M254.878,467.049c-0.881,0.429-2.33,0.996-4.238,1.262c-0.749,0.104-1.475,0.142-2.143,0.142
				c-0.869,0-1.637-0.065-2.227-0.139c-0.673-0.085-1.199-0.189-1.52-0.261c0.077,0.245,0.171,0.488,0.283,0.724
				c0.002,0.006,0.005,0.013,0.008,0.017c0.013,0.027,0.027,0.056,0.041,0.084c0.013,0.027,0.027,0.054,0.041,0.079
				c0.004,0.007,0.007,0.015,0.011,0.021c0.189,0.357,0.417,0.684,0.675,0.968c0.9,0.984,1.817,1.14,1.826,1.141l0.014,0.002
				l0.013,0.005c0.008,0.003,0.821,0.266,2.057,0.266c1.216,0,2.409-0.245,3.546-0.729c0.842-0.431,1.639-1.085,2.034-1.669
				c0.305-0.452,0.525-0.933,0.656-1.434c0.07-0.266,0.124-0.692,0.092-1.141C255.8,466.553,255.408,466.791,254.878,467.049z"/>
			<path style="fill:#CCFFFF;" d="M245.405,463.365c-0.026,0.037-0.408,0.578-0.709,1.408c-0.226,0.622-0.216,1.527-0.216,1.538
				v0.002c0,0.212,0.012,0.423,0.035,0.632c0,0.005,0,0.008,0.001,0.011c0.002,0.027,0.007,0.052,0.009,0.079
				c0.019,0.145,0.043,0.291,0.074,0.439c0.438,0.111,3.049,0.72,5.968,0.314c1.829-0.254,3.218-0.795,4.062-1.204
				c0.701-0.34,1.151-0.648,1.325-0.774c-0.173-0.643-0.651-1.65-1.09-2.279c-1.253-1.791-2.604-2.25-3.298-2.365
				c-0.265-0.043-0.477-0.068-0.777-0.068c-0.28,0-0.626,0.023-1.089,0.071c-0.464,0.048-0.982,0.17-1.583,0.372
				c-0.842,0.282-1.605,0.725-2.204,1.28l-0.021,0.019C245.804,462.922,245.618,463.094,245.405,463.365z M253.073,462.948
				c0.601,0,1.09,0.488,1.09,1.09c0,0.601-0.489,1.09-1.09,1.09c-0.601,0-1.089-0.489-1.089-1.09
				C251.984,463.437,252.472,462.948,253.073,462.948z M247.922,462.905c0.973,0,1.76,0.789,1.76,1.761
				c0,0.972-0.788,1.759-1.76,1.759c-0.972,0-1.76-0.787-1.76-1.759C246.162,463.694,246.951,462.905,247.922,462.905z"/>
		</g>
	</g>
</g>
</svg>
