<svg version="1.0" xmlns="http://www.w3.org/2000/svg" width="2228.000000pt" height="770.000000pt" viewBox="0 0 2228.000000 770.000000" preserveAspectRatio="xMidYMid meet">

<g transform="translate(0.000000,770.000000) scale(0.100000,-0.100000)" fill="#ff0000" stroke="none">
<path d="M3170 6440 l0 -500 1420 0 1420 0 0 500 0 500 -1420 0 -1420 0 0 -500z" fill="#ff0000"/>
<path d="M6270 6926 c0 -7 4 -26 9 -42 11 -35 44 -143 111 -369 62 -207 95 -316 125 -415 13 -41 35 -114 49 -162 14 -49 38 -127 52 -175 14 -49 36 -122 49 -163 13 -41 33 -111 45 -155 12 -44 46 -156 75 -250 53 -170 85 -275 132 -435 14 -47 35 -119 48 -160 29 -93 60 -195 125 -415 62 -207 95 -316 125 -415 22 -72 48 -158 102 -340 26 -88 60 -201 93 -305 10 -33 24 -80 30 -105 6 -25 16 -57 22 -72 l10 -28 658 0 657 0 17 63 c10 34 26 89 36 122 10 33 30 101 45 150 15 50 37 124 50 165 13 41 34 113 48 160 45 154 78 264 102 340 13 41 34 113 48 160 45 154 78 264 102 340 13 41 34 113 48 160 85 286 103 345 176 575 28 88 57 185 65 215 30 111 70 249 142 485 14 44 35 116 48 160 13 44 36 121 51 170 42 138 74 242 99 330 13 44 36 121 51 170 54 175 72 244 67 250 -3 3 -272 5 -598 5 l-592 0 -7 -32 c-4 -18 -13 -55 -21 -83 -7 -27 -52 -207 -99 -400 -47 -192 -92 -375 -100 -405 -8 -30 -46 -183 -86 -340 -77 -312 -84 -337 -239 -969 -58 -239 -111 -436 -117 -438 -6 -2 -14 13 -17 34 -4 21 -14 61 -22 88 -7 28 -30 118 -49 200 -20 83 -42 175 -50 205 -8 30 -31 125 -51 210 -20 85 -49 209 -66 275 -16 66 -38 156 -49 200 -11 44 -26 105 -34 135 -8 30 -42 168 -75 305 -33 138 -67 275 -75 305 -8 30 -31 123 -50 205 -19 83 -42 175 -50 205 -8 30 -24 93 -35 140 -11 47 -25 102 -31 123 l-10 37 -594 0 c-493 0 -595 -2 -595 -14z" fill="#ff0000"/>
<path d="M10257 6933 c-4 -3 -7 -228 -7 -500 l0 -493 1420 0 1420 0 -2 498 -3 497 -1411 3 c-776 1 -1414 -1 -1417 -5z" fill="#ff0000"/>
<path d="M13340 6441 l0 -500 853 -3 852 -3 47 -23 c172 -85 172 -392 0 -474 l-47 -23 -852 -3 -853 -3 0 -494 0 -495 578 0 c731 0 855 -10 954 -77 52 -35 92 -111 107 -203 7 -40 11 -292 11 -657 l0 -593 605 0 606 0 -3 798 -3 797 -26 55 c-61 129 -230 221 -480 263 -39 7 -70 17 -70 22 0 6 49 15 108 21 258 28 423 110 585 295 143 163 221 399 221 669 -1 391 -165 722 -463 934 -88 63 -135 87 -248 127 -175 63 -157 62 -1374 66 l-1108 4 0 -500z" fill="#ff0000"/>
<path d="M17103 6928 c-15 -20 -53 -246 -53 -313 0 -120 36 -315 81 -442 76 -219 190 -427 345 -633 39 -52 102 -138 141 -190 38 -52 109 -142 157 -200 162 -195 361 -464 428 -581 117 -202 108 -422 -23 -564 -55 -60 -114 -92 -190 -104 -39 -7 -287 -11 -631 -11 l-568 0 0 -501 0 -500 748 3 747 4 125 27 c154 33 243 62 364 122 338 165 555 433 653 805 25 97 27 120 27 295 0 246 -25 371 -114 576 -77 174 -297 526 -431 688 -42 52 -173 224 -294 388 -71 97 -255 375 -255 386 0 5 -8 21 -18 35 -42 63 -112 256 -141 389 -21 99 -22 86 25 306 l7 27 -561 0 c-436 0 -562 -3 -569 -12z" fill="#ff0000"/>
<path d="M3168 5403 c-2 -5 -2 -572 0 -1260 l4 -1253 1419 0 1419 0 0 500 0 500 -809 0 c-445 0 -816 3 -825 6 -14 5 -16 37 -16 253 0 179 3 250 12 259 9 9 206 12 825 12 l813 0 0 495 0 495 -1419 0 c-781 0 -1421 -3 -1423 -7z" fill="#ff0000"/>
<path d="M10248 5403 c-2 -5 -2 -572 0 -1260 l4 -1253 1419 0 1419 0 0 500 0 500 -817 2 -818 3 -3 263 -2 262 820 0 820 0 0 495 0 495 -1419 0 c-781 0 -1421 -3 -1423 -7z" fill="#ff0000"/>
<path d="M8533 1900 c-27 -11 -38 -43 -23 -70 8 -14 10 -210 8 -660 l-3 -640 31 -6 c17 -3 48 -1 70 5 l39 10 -3 250 -4 249 84 64 c220 171 382 247 525 248 89 0 85 24 81 -426 -2 -321 -1 -395 10 -399 30 -11 91 -4 109 13 17 16 18 35 13 417 -5 434 -5 430 -63 465 -115 70 -482 -45 -697 -218 l-55 -45 -3 329 c-2 238 1 337 10 358 10 26 9 31 -11 47 -25 20 -80 24 -118 9z" fill="#ff0000"/>
<path d="M16593 1903 c-29 -6 -40 -45 -24 -89 9 -24 11 -196 11 -650 -2 -582 -1 -619 16 -631 34 -25 125 -11 137 20 3 9 -3 25 -14 38 -18 21 -19 43 -19 601 0 561 1 581 20 624 15 32 18 49 11 63 -14 26 -74 36 -138 24z" fill="#ff0000"/>
<path d="M20568 1899 c-19 -11 -24 -54 -8 -64 15 -9 14 -1227 -2 -1243 -21 -21 6 -60 47 -68 80 -15 131 17 106 65 -12 21 -16 381 -5 381 7 0 90 -59 200 -140 34 -25 96 -70 138 -100 43 -30 130 -94 194 -142 68 -51 127 -88 140 -88 31 0 82 27 82 44 0 8 -35 37 -77 66 -43 29 -105 73 -138 97 -90 66 -190 139 -313 228 -61 44 -111 83 -111 88 -1 9 570 387 612 405 43 19 35 62 -16 81 -41 16 -55 14 -80 -13 -19 -20 -179 -127 -524 -353 -46 -29 -90 -56 -98 -60 -15 -5 -16 35 -14 402 1 336 -1 409 -12 416 -19 12 -100 11 -121 -2z" fill="#ff0000"/>
<path d="M3315 1893 c-77 -6 -315 -51 -360 -68 -65 -23 -85 -20 -85 15 0 26 -5 31 -40 41 -35 11 -46 10 -77 -5 -32 -15 -35 -20 -29 -48 3 -17 6 -322 6 -679 l0 -649 63 0 c34 1 132 12 217 25 216 34 372 84 547 176 358 188 572 463 573 735 0 192 -149 357 -395 434 -56 17 -100 22 -220 25 -82 1 -172 1 -200 -2z m329 -98 c99 -23 177 -66 249 -138 88 -86 112 -139 111 -247 0 -56 -6 -102 -18 -134 -103 -283 -445 -531 -869 -630 -111 -27 -246 -47 -259 -39 -5 2 -8 245 -8 538 l0 535 38 19 c99 50 287 94 497 115 67 7 186 -2 259 -19z" fill="#ff0000"/>
<path d="M6467 1882 c-10 -10 -17 -27 -17 -38 0 -11 -21 -62 -46 -114 -26 -52 -63 -131 -84 -175 -21 -44 -67 -141 -103 -215 -35 -74 -83 -175 -107 -225 -58 -123 -165 -347 -202 -422 -26 -54 -35 -63 -71 -76 -34 -11 -43 -19 -45 -40 -6 -54 74 -97 152 -83 49 9 69 36 61 80 -6 28 -1 49 23 98 17 35 57 119 90 188 33 69 97 202 142 295 45 94 104 215 130 270 165 346 181 376 204 385 40 15 44 60 5 80 -32 17 -114 12 -132 -8z" fill="#ff0000"/>
<path d="M7643 1870 c-145 -20 -315 -61 -466 -113 -53 -19 -99 -31 -102 -29 -9 10 -5 37 10 66 8 15 15 34 15 42 0 36 -111 48 -151 15 -21 -17 -22 -22 -11 -45 13 -29 16 -114 4 -132 -4 -6 -17 -15 -30 -19 -45 -13 -51 -85 -8 -85 46 0 46 2 46 -491 0 -451 -1 -467 -20 -492 -24 -30 -24 -31 -4 -51 20 -20 122 -22 149 -2 17 12 18 17 7 40 -9 19 -12 113 -12 325 l0 299 63 5 c324 25 863 223 1020 375 49 47 67 82 67 129 0 91 -59 135 -215 163 -130 24 -188 24 -362 0z m388 -93 c45 -18 62 -41 62 -80 0 -25 -10 -40 -51 -77 -156 -140 -685 -330 -920 -330 l-52 0 2 166 3 165 60 25 c86 35 186 68 295 97 193 51 517 70 601 34z" fill="#ff0000"/>
<path d="M1050 1867 c-16 -8 -25 -21 -25 -37 0 -14 -8 -37 -19 -52 -23 -35 -15 -55 29 -74 l35 -14 0 -221 c0 -207 -1 -222 -20 -237 -33 -29 -36 -67 -6 -93 l26 -23 0 -256 c0 -244 -1 -258 -20 -275 -25 -23 -26 -61 -1 -75 26 -13 107 -13 133 1 11 6 143 17 297 25 152 7 299 16 326 20 28 3 148 9 269 13 199 6 219 8 232 26 19 26 18 32 -12 62 -19 19 -31 24 -52 19 -15 -4 -130 -13 -257 -21 -126 -8 -293 -19 -370 -25 -77 -5 -204 -13 -282 -17 l-143 -6 0 270 c0 232 2 272 15 277 8 3 147 15 308 26 160 12 326 25 368 30 52 6 86 6 105 -2 41 -15 111 5 125 36 24 51 -22 83 -103 73 -136 -18 -640 -64 -743 -69 l-70 -3 0 235 0 235 90 6 c138 10 737 34 765 31 140 -15 155 -14 183 8 29 23 35 56 15 83 -21 26 -89 37 -134 20 -23 -8 -111 -18 -209 -23 -93 -5 -242 -14 -330 -19 -88 -6 -206 -11 -262 -11 -100 0 -103 1 -109 24 -10 42 -98 61 -154 33z" fill="#ff0000"/>
<path d="M4339 1854 c-28 -34 15 -180 131 -439 10 -22 43 -98 75 -170 31 -71 63 -143 70 -160 12 -27 73 -184 95 -245 23 -63 32 -121 31 -204 0 -50 5 -96 11 -103 6 -8 33 -13 69 -13 69 0 89 15 89 68 1 62 19 123 64 212 90 181 189 314 518 697 119 139 223 264 231 280 24 44 4 73 -48 73 -46 0 -62 -13 -111 -90 -16 -24 -98 -128 -182 -230 -238 -288 -346 -436 -464 -638 -33 -56 -63 -100 -68 -97 -4 2 -15 33 -25 67 -17 62 -89 239 -200 493 -31 72 -72 171 -91 220 -19 50 -39 101 -45 115 -6 14 -15 53 -19 88 -5 34 -14 69 -20 77 -17 20 -94 20 -111 -1z" fill="#ff0000"/>
<path d="M20024 1806 c-34 -15 -50 -46 -60 -117 -5 -40 -3 -49 17 -68 35 -32 98 -29 131 7 37 40 48 65 48 116 0 35 -5 48 -22 60 -27 19 -72 20 -114 2z" fill="#ff0000"/>
<path d="M11515 1714 c-6 -2 -9 -52 -6 -129 3 -124 3 -124 -20 -129 -50 -10 -255 -24 -281 -19 -35 7 -79 -34 -71 -67 6 -24 48 -44 72 -35 9 4 54 10 101 15 47 5 111 12 143 16 l57 7 1 -389 c1 -214 4 -402 8 -419 4 -21 16 -35 41 -47 92 -46 264 4 560 163 59 32 227 149 254 177 35 37 30 77 -11 93 -39 15 -75 2 -98 -34 -52 -81 -235 -193 -440 -267 -27 -9 -71 -25 -98 -35 -81 -29 -78 -47 -75 389 l3 381 110 12 c61 6 151 16 200 22 50 6 120 11 157 11 71 0 98 14 98 50 0 36 -29 53 -80 46 -26 -3 -136 -15 -246 -26 -109 -11 -209 -23 -222 -26 l-24 -7 3 124 3 124 -65 2 c-35 1 -68 0 -74 -3z" fill="#ff0000"/>
<path d="M17329 1713 c-1 -5 -1 -63 1 -130 l2 -122 -33 -5 c-75 -12 -257 -25 -276 -20 -30 8 -73 -23 -73 -52 0 -40 39 -58 102 -45 82 16 257 33 268 26 6 -4 10 -148 10 -398 0 -216 3 -402 6 -415 8 -28 62 -52 118 -52 140 0 521 180 712 336 38 32 45 42 42 68 -6 64 -102 74 -129 13 -33 -76 -246 -199 -496 -287 -76 -27 -96 -30 -108 -20 -13 11 -15 64 -13 394 l3 381 110 12 c61 6 153 16 205 22 52 6 124 11 161 11 37 0 70 5 77 12 19 19 15 66 -7 77 -16 9 -190 -5 -526 -42 -19 -2 -20 4 -20 121 l0 122 -67 0 c-38 0 -69 -3 -69 -7z" fill="#ff0000"/>
<path d="M19121 1459 c-157 -17 -325 -72 -471 -154 -41 -23 -87 -45 -102 -49 -15 -3 -35 -18 -45 -32 -17 -26 -16 -27 11 -50 42 -37 146 -29 146 10 0 8 22 28 48 45 122 78 303 136 469 149 116 10 160 2 191 -33 21 -25 22 -35 20 -128 l-3 -102 -122 -6 c-133 -7 -155 -10 -288 -40 -384 -88 -690 -319 -649 -489 7 -29 18 -40 59 -60 158 -79 658 35 928 212 32 21 63 38 68 38 13 0 11 -175 -3 -205 -15 -34 0 -45 62 -44 90 1 82 -36 81 409 -2 435 -2 435 -66 488 -62 50 -144 60 -334 41z m269 -486 c0 -56 -1 -58 -50 -104 -106 -100 -453 -246 -662 -279 -99 -16 -207 -9 -224 15 -40 54 110 207 271 280 228 103 378 139 603 144 l62 1 0 -57z" fill="#ff0000"/>
<path d="M10402 1449 c-57 -11 -155 -46 -217 -77 -226 -113 -371 -354 -352 -583 6 -76 22 -113 74 -169 44 -50 84 -75 165 -103 148 -52 441 -4 603 97 17 11 48 30 69 44 106 67 198 183 237 299 44 132 10 298 -79 388 -84 85 -176 116 -347 114 -60 -1 -129 -5 -153 -10z m330 -104 c85 -48 138 -146 138 -258 -1 -269 -294 -506 -627 -507 -136 0 -198 30 -251 120 -24 41 -27 55 -27 145 0 83 4 111 25 163 93 234 377 400 635 370 35 -4 79 -18 107 -33z" fill="#ff0000"/>
<path d="M13113 1449 c-53 -10 -169 -52 -225 -80 -102 -52 -214 -160 -270 -259 -54 -98 -73 -168 -73 -275 0 -92 2 -104 30 -155 91 -165 316 -227 575 -157 96 26 184 59 230 88 14 9 48 30 77 48 78 49 166 149 210 238 37 76 38 80 37 188 0 97 -3 117 -26 165 -46 100 -128 165 -245 195 -62 16 -248 19 -320 4z m323 -100 c62 -35 90 -67 119 -131 25 -55 27 -69 23 -147 -10 -175 -121 -322 -318 -421 -132 -66 -326 -90 -440 -53 -93 30 -150 127 -150 256 0 296 338 563 666 525 33 -4 78 -17 100 -29z" fill="#ff0000"/>
<path d="M14884 1450 c-12 -5 -39 -37 -59 -72 -55 -90 -122 -182 -254 -348 -128 -160 -178 -224 -224 -287 -17 -24 -35 -43 -39 -43 -9 0 -12 6 -74 150 -39 92 -77 177 -99 225 -78 167 -105 260 -86 302 11 25 10 29 -9 45 -32 26 -91 23 -119 -5 l-22 -24 21 -89 c21 -92 83 -244 191 -469 34 -71 74 -165 89 -207 33 -93 42 -106 86 -114 46 -8 80 15 107 74 46 98 95 167 347 482 221 278 240 305 240 350 0 32 -52 48 -96 30z" fill="#ff0000"/>
<path d="M15629 1450 c-60 -10 -171 -51 -234 -86 -169 -94 -278 -231 -325 -410 -44 -169 -9 -292 109 -378 80 -58 160 -81 281 -80 220 2 462 98 603 241 65 66 86 94 125 173 25 51 27 65 27 175 0 108 -2 125 -25 168 -51 101 -129 163 -244 193 -55 15 -239 17 -317 4z m314 -97 c49 -27 96 -74 120 -118 19 -34 22 -56 22 -150 0 -104 -2 -113 -32 -171 -60 -114 -172 -216 -306 -277 -159 -72 -393 -75 -480 -7 -14 11 -37 44 -52 73 -130 267 143 634 504 675 82 9 182 -2 224 -25z" fill="#ff0000"/>
<path d="M19991 1433 c-12 -11 -21 -28 -20 -43 1 -14 3 -194 6 -401 3 -328 2 -378 -12 -389 -23 -19 -18 -47 10 -66 35 -23 123 -13 147 17 16 19 16 23 3 42 -13 18 -15 79 -15 381 0 260 3 369 12 394 12 32 11 35 -15 58 -34 29 -86 32 -116 7z" fill="#ff0000"/>
</g>
</svg>